<?xml version="1.0" encoding="UTF-8"?>
<svg id="Capa_2" xmlns="http://www.w3.org/2000/svg" viewBox="0 0 120 38.36">
  <defs>
    <style>
      .cls-1 {
        fill: #69a2c2;
      }

      .cls-1, .cls-2, .cls-3 {
        fill-rule: evenodd;
      }

      .cls-2 {
        fill: #aecbdf;
      }

      .cls-3 {
        fill: #717377;
      }
    </style>
  </defs>
  <g id="Guidelines">
    <g>
      <g>
        <path class="cls-3" d="M33.83,21.27c-.47,2.2-1.84,2.17-3.81,2.17-3.18,0-3.05-1.01-2.37-4.19h10.16c1.37-6.45.93-8.22-5.15-8.22s-7.3,2.31-8.43,7.6c-1.21,5.71-.44,7.52,5.21,7.52,4.22,0,6.95-.23,7.93-4.87h-3.55ZM28.12,16.99c.56-2.62.89-3.27,3.96-3.27,2.9,0,3.3.22,2.66,3.27h-6.62Z"/>
        <path class="cls-3" d="M48.55,13.72c3.07,0,3.22,1.27,2.55,4.42-.75,3.52-.98,5.29-4.61,5.29-3.24,0-2.74-1.94-2.03-5.29.79-3.72,1.64-4.42,4.09-4.42ZM49.5,25.97h3.55l4.49-21.11h-3.55l-1.76,8.3h-.14c-.38-1.8-2.19-2.14-3.99-2.14-5.07,0-6.25,2.79-7.17,7.12-.96,4.53-1.53,7.99,3.96,7.99,2.08,0,3.81-.45,5.13-2.39h.11l-.61,2.22Z"/>
        <path class="cls-3" d="M63,11.19h-3.55l-3.14,14.78h3.55l3.14-14.78ZM64.34,4.86h-3.55l-.64,3.01h3.55l.64-3.01Z"/>
        <path class="cls-3" d="M73.86,20.34c-.55,2.59-.94,3.1-3.84,3.1-3.13,0-2.82-1.15-2.04-4.84.81-3.8,1.06-4.87,4.1-4.87,2.48,0,3.1.39,2.62,2.65h3.55c.99-4.67-1.2-5.35-5.59-5.35-5.8,0-7.13,2.39-8.23,7.57-1.27,5.97-.42,7.54,5.01,7.54,4.98,0,6.93-.96,7.96-5.8h-3.55Z"/>
        <path class="cls-3" d="M88.81,11.02c-6.17,0-7.34,1.83-8.56,7.57-1.22,5.71-.82,7.54,5.35,7.54s7.34-1.83,8.56-7.54c1.22-5.74.82-7.57-5.34-7.57ZM88.24,13.72c3.15,0,3.22.9,2.36,4.9-.84,3.94-1.27,4.81-4.43,4.81s-3.22-.87-2.38-4.81c.85-4,1.29-4.9,4.45-4.9Z"/>
        <path class="cls-3" d="M98.31,11.19l-3.14,14.78h3.55l1.77-8.33c.56-2.62,1.39-3.91,4.27-3.91,1.94,0,2.24.73,1.93,2.59l-2.05,9.66h3.55l1.77-8.33c.55-2.62,1.39-3.91,4.26-3.91,1.94,0,2.24.73,1.93,2.59l-2.05,9.66h3.54l2.13-9.99c.77-3.63-.21-4.95-4.04-4.95-1.97,0-4.12.56-5.23,2.62h-.11c.06-2.14-1.98-2.62-3.84-2.62s-3.95.42-5.14,2.31h-.11l.45-2.14h-3.44Z"/>
      </g>
      <polygon class="cls-2" points="18.56 0 7.93 6.9 5.72 3.47 3.07 15.35 14.99 17.75 12.48 13.89 16.1 11.54 19.4 16.63 21.84 5.16 18.56 0"/>
      <polygon class="cls-1" points="18.77 21.01 6.85 18.62 9.36 22.47 5.73 24.83 2.44 19.74 0 31.21 3.28 36.37 13.91 29.47 16.12 32.9 18.77 21.01"/>
      <g>
        <path class="cls-1" d="M27.03,34.7l-.05.22c-.18.82-.51.92-1.36.92-1.33,0-1.3-.39-1.03-1.67.31-1.45.42-1.86,1.63-1.86.79,0,1.23.02,1.06.84l-.03.14h.68l.02-.12c.27-1.28-.56-1.41-1.66-1.41-1.64,0-2.06.75-2.37,2.23-.36,1.68-.38,2.41,1.5,2.41,1.08,0,1.96-.16,2.23-1.44l.05-.25h-.68Z"/>
        <path class="cls-1" d="M29.29,34.08c-.41,1.91-.16,2.32,1.52,2.32s2.1-.41,2.5-2.32c.41-1.92.17-2.32-1.52-2.32s-2.1.41-2.51,2.32ZM30,34.08c.34-1.58.46-1.77,1.68-1.77s1.26.19.93,1.77c-.33,1.57-.46,1.76-1.68,1.76s-1.26-.19-.93-1.76Z"/>
        <path class="cls-1" d="M36.18,31.81h-.68l-.96,4.53h.68l.56-2.64c.22-1.04.54-1.39,1.65-1.39.77,0,1.06.14.88.97l-.65,3.06h.68l.64-3.01c.29-1.26-.21-1.57-1.38-1.57-.52,0-1.2.06-1.53.61h-.02l.12-.55Z"/>
        <path class="cls-1" d="M41.83,31.81h-.68l-.96,4.53h.68l.56-2.64c.22-1.04.54-1.39,1.65-1.39.77,0,1.06.14.88.97l-.65,3.06h.68l.64-3.01c.29-1.26-.21-1.57-1.38-1.57-.52,0-1.2.06-1.53.61h-.02l.12-.55Z"/>
        <path class="cls-1" d="M49.26,34.97l-.04.17c-.14.64-.45.7-1.38.7-1.23,0-1.29-.18-.99-1.62h3.26l.1-.46c.36-1.68-.04-2.01-1.51-2.01-1.62,0-2.13.44-2.53,2.32-.37,1.73-.22,2.32,1.55,2.32,1.01,0,1.95-.06,2.2-1.26l.04-.16h-.7ZM46.97,33.68c.27-1.04.39-1.36,1.62-1.36,1.03,0,1.18.08.93,1.36h-2.56Z"/>
        <path class="cls-1" d="M54.8,34.7l-.05.22c-.17.82-.5.92-1.36.92-1.33,0-1.3-.39-1.03-1.67.31-1.45.42-1.86,1.63-1.86.79,0,1.23.02,1.06.84l-.03.14h.68l.02-.12c.27-1.28-.56-1.41-1.66-1.41-1.64,0-2.06.75-2.37,2.23-.36,1.68-.38,2.41,1.5,2.41,1.08,0,1.96-.16,2.23-1.44l.05-.25h-.68Z"/>
        <path class="cls-1" d="M60.09,31.81h-1.75l.23-1.1h-.68l-.23,1.1h-.6l-.12.55h.61l-.57,2.67c-.23,1.06-.05,1.36,1.01,1.36.93,0,1.4-.42,1.59-1.32l.07-.34h-.64l-.07.34c-.09.43-.16.77-.8.77-.5,0-.61-.11-.51-.61l.61-2.87h1.75l.12-.55Z"/>
        <path class="cls-1" d="M62.18,31.81h-.68l-.96,4.53h.68l.96-4.53ZM62.59,29.87h-.68l-.16.75h.68l.16-.75Z"/>
        <path class="cls-1" d="M64.69,31.81h-.68l-.96,4.53h.68l.56-2.64c.22-1.04.53-1.39,1.65-1.39.77,0,1.06.14.88.97l-.65,3.06h.68l.64-3.01c.28-1.26-.21-1.57-1.38-1.57-.52,0-1.2.06-1.53.61h-.02l.12-.55Z"/>
        <path class="cls-1" d="M70.61,35.85c-1.32,0-1.1-.67-.87-1.76.25-1.19.36-1.77,1.62-1.77s1.2.51.93,1.77c-.21,1.01-.37,1.76-1.68,1.76ZM73.46,31.81h-.68l-.12.57h-.02c-.15-.54-.7-.62-1.32-.62-1.56,0-1.96.81-2.28,2.32-.33,1.55-.17,2.32,1.3,2.32.54,0,1.28-.06,1.59-.61h.02l-.22,1.04c-.2.89-.71.98-1.52.98-.72,0-1.12-.05-.94-.92h-.68c-.35,1.31.45,1.47,1.5,1.47s2.05-.27,2.31-1.47l1.08-5.07Z"/>
        <path class="cls-1" d="M81.62,34.08c-.26,1.24-.42,1.76-1.62,1.76-1,0-1.21-.3-.9-1.76.28-1.29.45-1.77,1.65-1.77,1.09,0,1.19.29.88,1.77ZM77.92,36.35h.68l.11-.53.02-.02c.15.49.72.61,1.33.61,1.57,0,1.95-.84,2.26-2.32.3-1.41.29-2.32-1.28-2.32-.53,0-1.26.06-1.6.64h-.02l.54-2.53h-.68l-1.38,6.48Z"/>
        <path class="cls-1" d="M86.57,36.35h.69l.96-4.53h-.68l-.59,2.8c-.23,1.08-.76,1.24-1.71,1.24-.88,0-.85-.39-.7-1.12l.62-2.91h-.68l-.62,2.91c-.25,1.19.07,1.68,1.27,1.68.6,0,1.2-.11,1.55-.66h.02l-.13.61Z"/>
        <path class="cls-1" d="M93.44,32.82c.22-1.03-.75-1.06-1.55-1.06-1.23,0-1.98.03-2.26,1.34-.28,1.28.74,1.18,1.71,1.25.82.05,1.21-.1,1.02.74-.17.8-.87.7-1.33.7-1.04,0-1.28-.09-1.19-.53l.07-.35h-.71l-.09.42c-.22,1.01.8,1.07,1.79,1.07s1.9-.05,2.17-1.33c.31-1.47-.79-1.3-1.94-1.37-.7-.03-.94.03-.77-.78.12-.56.53-.55,1.39-.55.72,0,1.06,0,.96.46l-.04.17h.71l.04-.17Z"/>
        <path class="cls-1" d="M96.03,31.81h-.68l-.97,4.53h.69l.96-4.53ZM96.44,29.87h-.69l-.16.75h.68l.16-.75Z"/>
        <path class="cls-1" d="M98.54,31.81h-.68l-.96,4.53h.68l.56-2.64c.22-1.04.53-1.39,1.65-1.39.77,0,1.06.14.88.97l-.65,3.06h.68l.64-3.01c.29-1.26-.21-1.57-1.38-1.57-.51,0-1.2.06-1.53.61h-.02l.12-.55Z"/>
        <path class="cls-1" d="M105.97,34.97l-.04.17c-.14.64-.45.7-1.38.7-1.23,0-1.29-.18-.99-1.62h3.26l.1-.46c.36-1.68-.04-2.01-1.51-2.01-1.62,0-2.13.44-2.53,2.32-.37,1.73-.22,2.32,1.55,2.32,1.01,0,1.95-.06,2.2-1.26l.03-.16h-.7ZM103.68,33.68c.28-1.04.39-1.36,1.62-1.36,1.04,0,1.17.08.94,1.36h-2.56Z"/>
        <path class="cls-1" d="M112.41,32.82c.22-1.03-.75-1.06-1.55-1.06-1.23,0-1.98.03-2.26,1.34-.27,1.28.74,1.18,1.71,1.25.82.05,1.21-.1,1.03.74-.17.8-.86.7-1.33.7-1.04,0-1.28-.09-1.19-.53l.07-.35h-.71l-.09.42c-.21,1.01.8,1.07,1.79,1.07s1.9-.05,2.18-1.33c.31-1.47-.79-1.3-1.94-1.37-.7-.03-.94.03-.77-.78.12-.56.53-.55,1.39-.55.72,0,1.06,0,.97.46l-.04.17h.71l.04-.17Z"/>
        <path class="cls-1" d="M117.7,32.82c.22-1.03-.75-1.06-1.54-1.06-1.23,0-1.98.03-2.26,1.34-.27,1.28.74,1.18,1.71,1.25.82.05,1.2-.1,1.02.74-.17.8-.87.7-1.33.7-1.04,0-1.28-.09-1.19-.53l.08-.35h-.71l-.09.42c-.22,1.01.8,1.07,1.79,1.07s1.9-.05,2.17-1.33c.31-1.47-.79-1.3-1.94-1.37-.7-.03-.94.03-.77-.78.12-.56.53-.55,1.39-.55.72,0,1.06,0,.96.46l-.03.17h.71l.04-.17Z"/>
      </g>
    </g>
  </g>
</svg>