<?xml version="1.0" encoding="UTF-8" standalone="no"?>
<!-- Created with Inkscape (http://www.inkscape.org/) -->

<svg
   version="1.1"
   id="svg1"
   width="1896.6667"
   height="556"
   viewBox="0 0 1896.6667 556"
   sodipodi:docname="R2.svg"
   inkscape:version="1.4.2 (f4327f4, 2025-05-13)"
   xmlns:inkscape="http://www.inkscape.org/namespaces/inkscape"
   xmlns:sodipodi="http://sodipodi.sourceforge.net/DTD/sodipodi-0.dtd"
   xmlns="http://www.w3.org/2000/svg"
   xmlns:svg="http://www.w3.org/2000/svg">
  <defs
     id="defs1" />
  <sodipodi:namedview
     id="namedview1"
     pagecolor="#ffffff"
     bordercolor="#000000"
     borderopacity="0.25"
     inkscape:showpageshadow="2"
     inkscape:pageopacity="0.0"
     inkscape:pagecheckerboard="0"
     inkscape:deskcolor="#d1d1d1"
     inkscape:zoom="0.44980191"
     inkscape:cx="995.99398"
     inkscape:cy="625.83104"
     inkscape:window-width="2560"
     inkscape:window-height="1351"
     inkscape:window-x="2551"
     inkscape:window-y="-9"
     inkscape:window-maximized="1"
     inkscape:current-layer="g1" />
  <g
     inkscape:groupmode="layer"
     inkscape:label="Image"
     id="g1">
    <path
       style="fill:#000000"
       d="m 329.66668,534.66667 c 0.2634,-0.42619 9.8827,-0.66667 26.66667,-0.66667 16.78397,0 26.40327,0.24048 26.66667,0.66667 0.2721,0.44026 -8.78397,0.66666 -26.66667,0.66666 -17.8827,0 -26.93877,-0.2264 -26.66667,-0.66666 z m -33.66667,-2 c 0,-0.87696 24.64301,-0.87696 26,0 0.66389,0.42903 -3.5375,0.64968 -12.5,0.65645 -8.56236,0.006 -13.5,-0.23362 -13.5,-0.65645 z m 94.00001,0 c 1.34975,-0.87228 18.66666,-0.87228 18.66666,0 0,0.41477 -3.71541,0.66281 -9.83333,0.65645 -6.59518,-0.007 -9.50403,-0.22302 -8.83333,-0.65645 z m -117.72407,-1.27778 c -1.093,-1.10028 0.96858,-1.38764 9.89073,-1.37868 14.17555,0.0142 15.20275,1.20026 1.26147,1.45653 -5.98194,0.10996 -11.00043,0.0749 -11.1522,-0.0779 z m 137.39073,-0.72222 C 409.90564,530.28003 413.5625,530 418.3727,530 c 5.08488,0 8.29398,0.25795 8.29398,0.66667 0,0.41041 -3.34644,0.66666 -8.70601,0.66666 -5.63424,0 -8.56063,-0.23522 -8.29399,-0.66666 z m -151.66667,-2 c 0,-0.39737 2.54244,-0.66667 6.29399,-0.66667 3.47687,0 6.47841,0.29839 6.70601,0.66667 0.26425,0.42756 -1.99308,0.66666 -6.29399,0.66666 -4.02623,0 -6.70601,-0.2664 -6.70601,-0.66666 z m 171.66668,0 C 429.90564,528.28003 433.5625,528 438.3727,528 c 5.08488,0 8.29399,0.25795 8.29399,0.66667 0,0.41041 -3.34645,0.66666 -8.70602,0.66666 -5.63424,0 -8.56063,-0.23522 -8.29398,-0.66666 z m -185.2015,-1.09038 c -0.25585,-0.25585 -0.46518,-0.71518 -0.46518,-1.02073 0,-0.7784 12.11311,-0.67746 13.33333,0.11111 0.68826,0.44478 -0.80153,0.64943 -4.7788,0.65645 -3.17835,0.006 -6.19402,0.16954 -6.70149,0.36428 -0.50748,0.19474 -1.13201,0.14474 -1.38786,-0.11111 z m 209.34639,-0.0793 C 446.79918,527.19893 447.82699,526 455.09492,526 c 4.09049,0 5.60893,0.22183 5.41899,0.79167 -0.32495,0.97484 -0.33564,0.97596 -6.70233,0.70534 z m 12.66667,-2.02544 c -3.08823,-0.11613 -5.02877,-0.45345 -4.79399,-0.83334 0.5109,-0.82666 10.98243,-0.83706 10.98243,-0.0109 0,0.96905 -0.62003,1.05363 -6.18844,0.84425 z m -232.47824,-0.8049 c 0,-0.37545 1.87577,-0.66667 4.29399,-0.66667 2.36169,0 4.4794,0.3 4.70601,0.66667 0.25982,0.42039 -1.32641,0.66666 -4.29399,0.66666 -2.69289,0 -4.70601,-0.28518 -4.70601,-0.66666 z m -11.53482,-1.09038 c -0.25585,-0.25585 -0.46518,-0.71518 -0.46518,-1.02073 0,-0.795 9.17181,-0.68958 9.66667,0.11111 0.25552,0.41345 -0.97491,0.66666 -3.23947,0.66666 -2.00831,0 -4.06669,0.15933 -4.57416,0.35407 -0.50748,0.19474 -1.13202,0.14474 -1.38786,-0.11111 z m 251.86816,-0.90962 C 474.55997,522.3 477.42767,522 480.70603,522 c 3.52933,0 5.96066,0.27193 5.96066,0.66667 0,0.39795 -2.56867,0.66666 -6.37268,0.66666 -4.07869,0 -6.22436,-0.23998 -5.96066,-0.66666 z m -264.05858,-1.27778 c -0.15112,-0.15278 -0.27476,-0.52778 -0.27476,-0.83333 0,-0.76354 10.49498,-0.70603 10.96847,0.0601 0.36673,0.59336 -10.12149,1.35174 -10.69371,0.77323 z M 489.817,521.50298 C 485.49713,521.17178 486.49345,520 491.09492,520 c 2.54663,0 3.60146,0.24425 3.41899,0.79167 -0.32203,0.96608 -0.67552,1.01961 -4.69691,0.71131 z m -287.54066,-2.11409 c -0.15198,-0.15278 -0.27633,-0.52778 -0.27633,-0.83333 0,-0.7559 7.15945,-0.70959 7.62849,0.0493 0.361,0.58411 -6.79219,1.34688 -7.35216,0.78399 z m 293.39035,-0.72222 C 495.8933,518.3 498.01101,518 500.3727,518 c 2.41821,0 4.29399,0.29122 4.29399,0.66667 0,0.38148 -2.01312,0.66666 -4.70601,0.66666 -2.96758,0 -4.55381,-0.24627 -4.29399,-0.66666 z m -303.2015,-1.09038 C 191.32077,516.43187 192.27845,516 195.96066,516 c 2.17836,0 4.14607,0.3 4.37268,0.66667 0.25125,0.40652 -0.75268,0.66666 -2.5728,0.66666 -1.64165,0 -3.40002,0.15933 -3.9075,0.35407 -0.50747,0.19474 -1.13201,0.14474 -1.38785,-0.11111 z M 507.817,517.50298 C 503.49713,517.17178 504.49345,516 509.09492,516 c 2.54663,0 3.60146,0.24425 3.41899,0.79167 -0.32203,0.96608 -0.67552,1.01961 -4.69691,0.71131 z M 186.1772,514.5 c 0.32393,-0.93632 4.43127,-0.76998 5.45614,0.22096 0.38781,0.37497 -0.60291,0.61237 -2.55555,0.61237 -2.26043,0 -3.10495,-0.24263 -2.90059,-0.83333 z m 327.52282,0.2509 c 1.19676,-1.10059 6.19278,-1.35005 7.02222,-0.35063 0.64976,0.78291 0.0961,0.93306 -3.44059,0.93306 -2.44245,0 -3.94863,-0.24493 -3.58163,-0.58243 z m -337.45408,-1.55899 c -0.21803,-0.35278 -0.0592,-0.97861 0.3529,-1.39074 0.55464,-0.55465 1.11063,-0.38801 2.14006,0.64142 l 1.39074,1.39074 H 178.386 c -0.959,0 -1.92203,-0.28864 -2.14006,-0.64142 z m 351.68186,-0.74932 c 1.02943,-1.02943 1.58541,-1.19607 2.14006,-0.64142 1.07697,1.07697 0.23693,2.03216 -1.78716,2.03216 h -1.74364 z m -339.66578,-0.16378 c 0.22256,-0.57999 0.40465,-1.32999 0.40465,-1.66667 0,-0.33668 0.45,-0.61214 1,-0.61214 0.55,0 0.96448,-0.225 0.92106,-0.5 -0.19693,-1.24718 0.13829,-2.16667 0.78989,-2.16667 0.39102,0 0.61602,0.825 0.5,1.83334 -0.11864,1.03113 -0.57558,1.7604 -1.04428,1.66666 -0.45833,-0.0917 -0.83333,0.43334 -0.83333,1.16667 0,0.78019 -0.44445,1.33333 -1.07133,1.33333 -0.70301,0 -0.93221,-0.36253 -0.66666,-1.05452 z m 328.40467,0.12585 c 0,-0.51077 -0.45,-1.10136 -1,-1.31241 -0.55,-0.21106 -1,-0.81106 -1,-1.33333 0,-0.52228 -0.45,-1.12228 -1,-1.33334 -1.21296,-0.46545 -1.37743,-3.3365 -0.16667,-2.90938 0.45834,0.16168 0.79167,0.78668 0.74074,1.38889 -0.0509,0.6022 0.32408,1.09491 0.83334,1.09491 0.50926,0 0.92592,0.38333 0.92592,0.85184 0,0.46851 0.6,1.36557 1.33334,1.99347 1.57902,1.35201 1.73122,2.48802 0.33333,2.48802 -0.55,0 -1,-0.4179 -1,-0.92867 z m -348.33267,-1.07023 c -0.67184,-1.08705 -0.42869,-1.17551 3.94254,-1.43431 2.73582,-0.16197 4.02864,0.0217 4.22222,0.59988 0.19572,0.58457 -0.61684,0.83333 -2.72203,0.83333 -1.65056,0 -3.44522,0.17046 -3.98812,0.37879 -0.5429,0.20833 -1.19747,0.0384 -1.45461,-0.37769 z m 365.12256,0.16607 c -2.3716,-0.16053 -3.45558,-0.50343 -3.27778,-1.03685 0.14612,-0.43834 0.61567,-0.76698 1.04345,-0.73032 0.42777,0.0367 2.30277,0.11167 4.16666,0.16667 2.28551,0.0674 3.30297,0.35776 3.125,0.89167 -0.32294,0.96882 -0.61399,1.00961 -5.05733,0.70883 z m -372.9914,-1.92421 C 159.33783,508.44894 160.24964,508 163.66667,508 c 2.01667,0 3.66667,0.3 3.66667,0.66667 0,0.36666 -1.02546,0.66666 -2.27881,0.66666 -1.25334,0 -2.69401,0.15933 -3.20149,0.35407 -0.50747,0.19474 -1.13201,0.14474 -1.38786,-0.11111 z m 380.68755,-0.10756 c -1.38268,-0.11965 -2.33997,-0.49906 -2.12732,-0.84314 0.50496,-0.81704 5.64128,-0.81546 5.64128,0.002 0,0.9164 -0.70279,1.08468 -3.51396,0.84141 z m -369.57831,-1.1354 c -0.21105,-0.55 -0.95163,-1 -1.64574,-1 -0.6941,0 -1.26201,-0.45 -1.26201,-1 0,-0.55 -0.45,-1 -1,-1 -0.55,0 -1,-0.45 -1,-1 0,-0.55 -0.45,-1 -1,-1 -0.55,0 -1,-0.41501 -1,-0.92224 0,-0.50724 -0.66982,-1.09741 -1.4885,-1.3115 -1.15833,-0.30291 -1.31092,-0.56684 -0.68792,-1.18984 0.62301,-0.623 1.55288,-0.0363 4.19209,2.64483 1.86532,1.89498 3.82488,3.44542 4.35458,3.44542 0.5297,0 0.96309,0.41667 0.96309,0.92593 0,0.50926 0.49271,0.88426 1.09491,0.83333 0.6022,-0.0509 1.2272,0.28241 1.38889,0.74074 0.42712,1.21076 -2.44393,1.04629 -2.90939,-0.16667 z M 532.18289,508.5 c 0.16168,-0.45833 0.78668,-0.79167 1.38889,-0.74074 0.6022,0.0509 1.09491,-0.32407 1.09491,-0.83333 0,-0.50926 0.39077,-0.92593 0.86837,-0.92593 0.47761,0 2.44437,-1.54324 4.37059,-3.42942 2.68571,-2.62989 3.68512,-3.2465 4.28679,-2.64483 0.60167,0.60167 0.43756,0.87534 -0.70391,1.17384 -0.81868,0.21409 -1.48851,0.80426 -1.48851,1.3115 0,0.50723 -0.45,0.92224 -1,0.92224 -0.55,0 -1,0.45 -1,1 0,0.55 -0.45,1 -1,1 -0.55,0 -1,0.45 -1,1 0,0.55 -0.5679,1 -1.262,1 -0.69411,0 -1.43469,0.45 -1.64575,1 -0.46545,1.21296 -3.3365,1.37743 -2.90938,0.16667 z m -339.86217,-1.1871 c -0.24095,-0.38986 1.09376,-2.26975 2.96602,-4.17754 5.14439,-5.24199 5.37994,-5.52036 5.37994,-6.35795 0,-0.42758 0.41501,-0.77741 0.92224,-0.77741 0.50724,0 1.08704,-0.63018 1.28846,-1.40041 0.20142,-0.77023 0.65254,-1.22345 1.00249,-1.00718 0.34994,0.21628 0.59514,-0.0962 0.54487,-0.6945 -0.0503,-0.59826 0.2836,-1.22003 0.74194,-1.38171 1.47652,-0.52088 0.88804,1.46008 -1.0709,3.60484 -1.04732,1.14668 -2.0879,2.56353 -2.31241,3.14858 -0.2245,0.58504 -0.7176,1.06371 -1.09577,1.06371 -0.37818,0 -0.68759,0.45 -0.68759,1 0,0.55 -0.45,1 -1,1 -0.55,0 -1,0.45 -1,1 0,0.55 -0.45,1 -1,1 -0.55,0 -1,0.45 -1,1 0,0.55 -0.45,1 -1,1 -0.55,0 -1,0.4323 -1,0.96066 0,1.2513 -1.11686,1.92895 -1.67929,1.01891 z m 356.16535,0.19471 C 545.0513,507.15726 546.0304,506 549.76159,506 c 2.03201,0 2.9301,0.25832 2.75232,0.79167 -0.32014,0.96042 -0.79813,1.04538 -4.02784,0.71594 z m -396.48606,-0.84094 c 0,-0.36667 1.63229,-0.66667 3.62732,-0.66667 1.99503,0 3.81273,0.3 4.03934,0.66667 0.25737,0.41642 -1.10418,0.66666 -3.62732,0.66666 -2.24845,0 -4.03934,-0.29557 -4.03934,-0.66666 z m -5.53483,-1.09038 C 145.38484,504.49594 146.18236,504 149.00001,504 c 1.65,0 3,0.3 3,0.66667 0,0.36666 -0.72547,0.66666 -1.61215,0.66666 -0.88667,0 -2.02734,0.15933 -2.53482,0.35407 -0.50747,0.19474 -1.13201,0.14474 -1.38786,-0.11111 z m 364.43525,-0.75445 c -0.21409,-0.81868 -0.80426,-1.48851 -1.3115,-1.48851 -0.50723,0 -0.92224,-0.45 -0.92224,-1 0,-0.55 -0.45,-1 -1,-1 -0.55,0 -1,-0.45 -1,-1 0,-0.55 -0.45,-1 -1,-1 -0.55,0 -1,-0.4179 -1,-0.92867 0,-0.51077 -0.45,-1.10136 -1,-1.31241 C 502.60889,496.68633 502.25176,494 503.2556,494 c 0.3239,0 0.75371,0.63018 0.95513,1.40041 0.20165,0.77112 0.68595,1.2028 1.07775,0.96066 0.39135,-0.24187 0.71154,0.0113 0.71154,0.56267 0,0.55134 1.55044,2.52861 3.44542,4.39393 2.68116,2.63921 3.26783,3.56908 2.64483,4.19208 -0.623,0.623 -0.88693,0.47041 -1.18984,-0.68791 z m 44.2523,0.63708 c -1.38268,-0.11425 -2.33997,-0.48925 -2.12732,-0.83333 0.49062,-0.79384 7.64128,-0.82813 7.64128,-0.0366 0,0.76255 -2.34211,1.13208 -5.51396,0.86997 z M 140.46518,503.57629 C 139.41778,502.52888 140.14323,502 142.62733,502 c 1.44503,0 2.81273,0.3 3.03934,0.66667 0.23233,0.37591 -0.30823,0.66666 -1.23946,0.66666 -0.90832,0 -2.06669,0.15933 -2.57417,0.35407 -0.50747,0.19474 -1.13201,0.14474 -1.38786,-0.11111 z m 422.02089,-0.0687 C 559.0513,503.15726 560.0304,502 563.76159,502 c 2.03201,0 2.9301,0.25832 2.75232,0.79167 -0.32014,0.96042 -0.79813,1.04538 -4.02784,0.71594 z M 134.31296,501.42407 C 133.41398,500.52509 134.28185,500 136.66667,500 c 1.46667,0 2.66667,0.26718 2.66667,0.59373 0,0.62586 -4.48334,1.36738 -5.02038,0.83034 z m 433.0204,-0.7574 c 0,-0.36667 1.65,-0.66667 3.66666,-0.66667 2.01667,0 3.66667,0.3 3.66667,0.66667 0,0.36666 -1.65,0.66666 -3.66667,0.66666 -2.01666,0 -3.66666,-0.3 -3.66666,-0.66666 z m 8.83333,-1.20037 c -2.67433,-0.4024 -1.58598,-1.4663 1.5,-1.4663 1.65,0 3,0.26503 3,0.58895 0,0.71237 -2.43775,1.18765 -4.5,0.87735 z m -450.16668,-0.79963 c 0,-0.36667 1.33229,-0.66667 2.96065,-0.66667 1.62836,0 3.14607,0.3 3.37268,0.66667 0.25394,0.41088 -0.88197,0.66666 -2.96066,0.66666 -1.85497,0 -3.37267,-0.3 -3.37267,-0.66666 z m 418.66668,-1.29399 c 0,-1.12164 -0.0225,-2.25685 -0.05,-2.52268 -0.0275,-0.26583 0.2725,-0.59083 0.66667,-0.72222 0.91383,-0.30461 0.96117,4.30908 0.05,4.87222 -0.38895,0.24038 -0.66667,-0.43752 -0.66667,-1.62732 z m -385.28072,0.23843 c 0.032,-0.77663 0.18996,-0.9346 0.40278,-0.40278 0.19258,0.48125 0.1689,1.05625 -0.0526,1.27778 -0.22153,0.22153 -0.3791,-0.17222 -0.35015,-0.875 z m 1.2807,-1.2 c 0,-1.7249 0.26344,-2.43238 0.83334,-2.23803 0.90771,0.30956 0.75561,3.10789 -0.22431,4.12692 -0.37187,0.38672 -0.60903,-0.34881 -0.60903,-1.88889 z m 386.05265,1.2 c 0.032,-0.77663 0.18996,-0.9346 0.40278,-0.40278 0.19258,0.48125 0.1689,1.05625 -0.0526,1.27778 -0.22153,0.22153 -0.3791,-0.17222 -0.35015,-0.875 z m -426.25414,-0.0348 C 119.38484,496.49594 120.18236,496 123.00001,496 c 1.65,0 3,0.3 3,0.66667 0,0.36666 -0.72547,0.66666 -1.61215,0.66666 -0.88667,0 -2.02734,0.15933 -2.53482,0.35407 -0.50747,0.19474 -1.13201,0.14474 -1.38786,-0.11111 z m 461.35688,-0.11801 c -1.01455,-0.11863 -1.67185,-0.49527 -1.46066,-0.83699 0.48874,-0.7908 6.30529,-0.82064 6.30529,-0.0323 0,0.7286 -2.38622,1.15679 -4.84463,0.86933 z m 5.66808,-1.93489 C 585.38099,495.12474 586.31972,494 588.76159,494 c 1.26008,0 1.91725,0.2969 1.75232,0.79167 -0.3154,0.94621 -1.00549,1.1132 -3.02377,0.73172 z M 114,494.66667 C 114,494.3 115.1823,494 116.62733,494 c 1.44502,0 2.81273,0.3 3.03934,0.66667 0.25167,0.4072 -0.77085,0.66666 -2.62732,0.66666 -1.67164,0 -3.03935,-0.3 -3.03935,-0.66666 z m -4.5,-1.20037 C 106.82567,493.0639 107.91403,492 111,492 c 1.65,0 3,0.26503 3,0.58895 0,0.71237 -2.43775,1.18765 -4.5,0.87735 z m 53.16667,-0.79963 c 0,-0.85926 0.33761,-1.33191 0.83334,-1.16667 0.45833,0.15278 0.83333,0.67778 0.83333,1.16667 0,0.48889 -0.375,1.01389 -0.83333,1.16666 -0.49573,0.16525 -0.83334,-0.3074 -0.83334,-1.16666 z m 338.00002,0 c 0,-0.74074 -0.44445,-1.33334 -1,-1.33334 -0.55,0 -1,-0.45 -1,-1 0,-0.55 -0.45,-1 -1,-1 -0.55,0 -1,-0.45 -1,-1 0,-0.55 -0.45,-1 -1,-1 -0.55,0 -1,-0.45 -1,-1 0,-0.55 -0.45,-1 -1,-1 -0.55,0 -1,-0.45 -1,-1 0,-0.55 -0.45,-1 -1,-1 -0.55,0 -1,-0.45 -1,-1 0,-0.55 -0.45,-1 -1,-1 -0.55,0 -1,-0.45 -1,-1 0,-0.55 -0.45,-1 -1,-1 -0.55,0 -1,-0.45 -1,-1 0,-0.55 -0.45,-1 -1,-1 -0.55,0 -1,-0.45 -1,-1 0,-0.55 -0.45,-1 -1,-1 -0.55,0 -1,-0.45 -1,-1 0,-0.55 -0.45,-1 -1,-1 -0.55,0 -1,-0.45 -1,-1 0,-0.55 -0.45,-1 -1,-1 -0.55,0 -1,-0.45 -1,-1 0,-0.55 -0.45,-1 -1,-1 -0.55,0 -1,-0.45 -1,-1 0,-0.55 -0.45,-1 -1,-1 -0.55,0 -1,-0.41501 -1,-0.92224 0,-0.50724 -0.66983,-1.09741 -1.48851,-1.3115 -1.14206,-0.29866 -1.30576,-0.57199 -0.70337,-1.17438 0.6024,-0.6024 4.21823,2.64796 15.53571,13.96544 8.11282,8.11282 14.56163,15.0563 14.3307,15.42996 -0.70352,1.13832 -1.67453,0.75912 -1.67453,-0.65394 z m 41.66667,0.66666 c -0.54367,-0.87967 0.25347,-2.12804 1.04606,-1.63819 0.80975,0.50045 0.80448,2.30486 -0.007,2.30486 -0.34503,0 -0.81273,-0.3 -1.03934,-0.66667 z m 50.82203,0.18279 C 590.60256,493.13757 591.55762,492 594.42826,492 c 1.51739,0 2.25608,0.28039 2.08565,0.79167 -0.31729,0.95189 -0.93141,1.08436 -3.35852,0.72445 z M 103.5,491.45872 c -0.825,-0.11996 -1.5,-0.49726 -1.5,-0.83842 0,-0.79199 5.79907,-0.8181 6.28719,-0.0283 0.41284,0.66799 -2.51213,1.19755 -4.78719,0.86672 z M 206.32541,491.3205 C 205.787,490.44933 236.2344,460 237.64393,460 c 0.56251,0 1.02275,-0.45 1.02275,-1 0,-0.55 0.375,-1.0024 0.83333,-1.00534 0.45833,-0.003 2.74117,-1.80294 5.07297,-4 2.3318,-2.19706 4.55664,-3.99466 4.94408,-3.99466 0.72867,0 1.19208,-0.38311 5.18874,-4.28961 1.74041,-1.70115 2.75965,-2.21768 3.82584,-1.93887 1.85534,0.48518 1.23196,1.56181 -0.90431,1.56181 -1.00206,0 -1.62732,0.38423 -1.62732,1 0,0.55 -0.45,1 -1,1 -0.55,0 -1,0.45 -1,1 0,0.55556 -0.59259,1 -1.33333,1 -0.73334,0 -1.25834,0.375 -1.16667,0.83334 0.0939,0.4697 -0.63826,0.92586 -1.67797,1.04537 -1.01988,0.11723 -1.66055,0.50989 -1.43292,0.8782 0.22644,0.3664 -0.21847,0.83097 -0.9887,1.03239 -0.77022,0.20141 -1.40041,0.78122 -1.40041,1.28846 0,0.50723 -0.45,0.92224 -1,0.92224 -0.55,0 -1,0.45 -1,1 0,0.55 -0.45,1 -1,1 -0.55,0 -1,0.45 -1,1 0,0.55556 -0.59259,1 -1.33333,1 -0.74074,0 -1.33334,0.44445 -1.33334,1 0,0.62838 -0.634,1 -1.70601,1 -1.0393,0 -1.53415,0.27807 -1.26625,0.71154 0.24214,0.3918 -0.18954,0.8761 -0.96066,1.07776 -0.77023,0.20141 -1.40041,0.78122 -1.40041,1.28846 0,0.50723 -0.45,0.92224 -1,0.92224 -0.55,0 -1,0.45 -1,1 0,0.55 -0.45,1 -1,1 -0.55,0 -1,0.45 -1,1 0,0.55 -0.45,1 -1,1 -0.55,0 -1,0.45 -1,1 0,0.55 -0.45,1 -1,1 -0.55,0 -1,0.45 -1,1 0,0.55 -0.45,1 -1,1 -0.55,0 -1,0.45 -1,1 0,0.55 -0.45,1 -1,1 -0.55,0 -1,0.45 -1,1 0,0.55 -0.45,1 -1,1 -0.55,0 -1,0.45 -1,1 0,0.55 -0.45,1 -1,1 -0.55,0 -1,0.45 -1,1 0,0.55 -0.45,1 -1,1 -0.55,0 -1,0.45 -1,1 0,0.55 -0.45,1 -1,1 -0.55,0 -1,0.45 -1,1 0,0.55 -0.45,1 -1,1 -0.55,0 -1,0.45 -1,1 0,0.55 -0.45,1 -1,1 -0.55,0 -1,0.45 -1,1 0,0.55 -0.45,1 -1,1 -0.55,0 -1,0.4323 -1,0.96066 0,1.24636 -1.11595,1.93042 -1.6746,1.02651 z m 334.00795,0.0128 c -0.22662,-0.36666 -0.22662,-0.96666 0,-1.33333 0.22661,-0.36667 -0.0557,-0.66667 -0.62733,-0.66667 -0.57164,0 -1.03934,-0.34983 -1.03934,-0.7774 0,-0.83939 -0.23305,-1.11435 -5.43333,-6.41051 -2.69057,-2.74018 -3.27992,-3.69884 -2.65692,-4.32184 0.623,-0.623 0.88693,-0.47041 1.18984,0.68792 0.21409,0.81867 0.80426,1.4885 1.3115,1.4885 0.50723,0 0.92224,0.45 0.92224,1 0,0.55 0.45,1 1,1 0.55,0 1,0.45 1,1 0,0.55 0.45,1 1,1 0.55,0 1,0.4179 1,0.92867 0,0.51077 0.45,1.10136 1,1.31241 0.55,0.21106 1,0.81106 1,1.33334 0,0.52228 0.45,1.12228 1,1.33333 0.55,0.21106 1,0.99315 1,1.73799 0,1.42338 -0.9657,1.82178 -1.66666,0.68759 z m 58.82203,0.18279 C 596.60256,491.13757 597.55762,490 600.42826,490 c 1.51739,0 2.25608,0.28039 2.08565,0.79167 -0.31729,0.95189 -0.93141,1.08436 -3.35852,0.72445 z m -434.48872,-1.53704 c 0,-0.74484 0.45,-1.52694 1,-1.738 0.55,-0.21105 1,-0.80164 1,-1.31241 0,-0.51077 0.45,-0.92867 1,-0.92867 0.55,0 1,-0.45 1,-1 0,-0.55 0.45,-1 1,-1 0.55,0 1,-0.45 1,-1 0,-0.55 0.41501,-1 0.92225,-1 0.50723,0 1.09741,-0.66983 1.3115,-1.4885 0.30291,-1.15833 0.56683,-1.31092 1.18983,-0.68792 0.62301,0.623 0.0363,1.55288 -2.64483,4.19208 -1.89498,1.86533 -3.44541,3.84259 -3.44541,4.39393 0,0.55134 -0.3202,0.80454 -0.71154,0.56268 -0.3918,-0.24215 -0.8761,0.18953 -1.07776,0.96065 -0.46816,1.79026 -1.54404,1.82242 -1.54404,0.0462 z M 98.465181,489.57629 C 97.494617,488.60572 98.069288,488 99.96066,488 c 1.07836,0 2.14607,0.3 2.37268,0.66667 0.22661,0.36666 -0.0312,0.66666 -0.5728,0.66666 -0.54165,0 -1.40003,0.15933 -1.9075,0.35407 -0.507475,0.19474 -1.132011,0.14474 -1.387859,-0.11111 z M 604.8207,489.51116 C 601.82626,489.14815 602.79439,488 606.09493,488 c 1.77469,0 2.59354,0.26799 2.41898,0.79167 -0.31886,0.9566 -0.86294,1.0626 -3.69321,0.71949 z M 92.465181,487.57629 C 91.452777,486.56388 92.106996,486 94.293993,486 c 1.261694,0 2.479399,0.3 2.706011,0.66667 0.226613,0.36666 -0.181146,0.66666 -0.90613,0.66666 -0.724984,0 -1.73336,0.15933 -2.240835,0.35407 -0.507474,0.19474 -1.132011,0.14474 -1.387858,-0.11111 z M 610.8207,487.51116 C 607.82626,487.14815 608.79439,486 612.09493,486 c 1.77469,0 2.59355,0.26799 2.41899,0.79167 -0.31887,0.9566 -0.86295,1.0626 -3.69322,0.71949 z M 86.465181,485.57629 C 85.452777,484.56388 86.106996,484 88.293992,484 c 1.261694,0 2.479399,0.3 2.706012,0.66667 0.226612,0.36666 -0.181146,0.66666 -0.90613,0.66666 -0.724985,0 -1.73336,0.15933 -2.240835,0.35407 -0.507474,0.19474 -1.132011,0.14474 -1.387858,-0.11111 z M 615.00003,484.66667 C 615.22664,484.3 616.59434,484 618.03937,484 c 1.44503,0 2.62732,0.3 2.62732,0.66667 0,0.36666 -1.3677,0.66666 -3.03934,0.66666 -1.85647,0 -2.87899,-0.25946 -2.62732,-0.66666 z M 82.465181,483.57629 C 81.489257,482.60036 82.073828,482 84.000004,482 c 1.1,0 2,0.3 2,0.66667 0,0.36666 -0.275464,0.66666 -0.612142,0.66666 -0.336678,0 -1.027348,0.15933 -1.534823,0.35407 -0.507475,0.19474 -1.132011,0.14474 -1.387858,-0.11111 z m 539.368179,-0.04 C 619.91222,483.04109 620.51459,482 622.72225,482 c 1.29045,0 1.95733,0.29467 1.79167,0.79167 -0.313,0.939 -1.08962,1.15473 -2.68056,0.74463 z M 76.46518,481.57629 C 75.452776,480.56388 76.106995,480 78.293992,480 c 1.261694,0 2.479399,0.3 2.706011,0.66667 0.226613,0.36666 -0.181146,0.66666 -0.90613,0.66666 -0.724984,0 -1.73336,0.15933 -2.240834,0.35407 -0.507475,0.19474 -1.132011,0.14474 -1.387859,-0.11111 z m 550.03485,-0.0994 c -2.20284,-0.45561 -1.16559,-1.47687 1.5,-1.47687 1.46666,0 2.66666,0.26503 2.66666,0.58895 0,0.69651 -2.50802,1.23097 -4.16666,0.88792 z M 71.833336,479.53854 c -0.641666,-0.16663 -1.166666,-0.58097 -1.166666,-0.92076 0,-0.83472 4.480977,-0.79091 5,0.0489 0.226612,0.36666 0.118854,0.66666 -0.239464,0.66666 -0.358317,0 -1.051022,0.11434 -1.539345,0.25409 -0.488322,0.13976 -1.412858,0.11776 -2.054525,-0.0489 z m 102.955724,-1.37187 c 0.11864,-1.03113 0.57559,-1.76041 1.04428,-1.66667 0.45833,0.0917 0.83333,-0.15104 0.83333,-0.53934 0,-0.38831 0.3,-0.52061 0.66667,-0.29399 1.00757,0.62271 0.79878,1.66666 -0.33333,1.66666 -0.55,0 -0.96448,0.225 -0.92106,0.5 0.19693,1.24718 -0.13829,2.16667 -0.78989,2.16667 -0.39102,0 -0.61602,-0.825 -0.5,-1.83333 z m 456.70108,1.35672 C 629.38099,479.12474 630.31972,478 632.76159,478 c 1.26008,0 1.91725,0.2969 1.75233,0.79167 -0.31541,0.94621 -1.0055,1.1132 -3.02378,0.73172 z M 66.46518,477.57629 C 65.448324,476.55943 66.111342,476 68.333336,476 c 1.283334,0 2.333334,0.3 2.333334,0.66667 0,0.36666 -0.425464,0.66666 -0.945475,0.66666 -0.520012,0 -1.360682,0.15933 -1.868157,0.35407 -0.507474,0.19474 -1.132011,0.14474 -1.387858,-0.11111 z M 636.15681,477.465 c -0.83044,-0.12484 -1.33774,-0.50554 -1.12733,-0.846 0.48772,-0.78914 5.63721,-0.81659 5.63721,-0.0301 0,0.71368 -2.43878,1.18742 -4.50988,0.87605 z M 61.500003,475.4663 c -0.825,-0.12414 -1.5,-0.50484 -1.5,-0.846 0,-0.79095 5.13232,-0.81822 5.619552,-0.0299 0.427398,0.69155 -1.964615,1.20012 -4.119552,0.87587 z m 579.990137,0.0571 C 639.38099,475.12474 640.31972,474 642.76159,474 c 1.26008,0 1.91725,0.2969 1.75233,0.79167 -0.31541,0.94621 -1.0055,1.1132 -3.02378,0.73172 z M 56.46518,473.57629 C 55.494615,472.60572 56.069287,472 57.960658,472 c 1.07836,0 2.146065,0.3 2.372678,0.66667 0.226612,0.36666 -0.03115,0.66666 -0.572797,0.66666 -0.541651,0 -1.400026,0.15933 -1.907501,0.35407 -0.507475,0.19474 -1.132011,0.14474 -1.387858,-0.11111 z m 589.36002,-0.0393 c -0.64616,-0.1675 -1.00345,-0.58184 -0.79399,-0.92076 0.5152,-0.83362 4.96882,-0.78839 4.96882,0.0505 0,0.36666 -0.27547,0.66666 -0.61214,0.66666 -0.33668,0 -1.01168,0.11434 -1.5,0.25409 -0.48833,0.13976 -1.41654,0.11705 -2.06269,-0.0505 z M 52.465179,471.57629 C 51.489255,470.60036 52.073827,470 54.000002,470 c 1.1,0 2,0.3 2,0.66667 0,0.36666 -0.275463,0.66666 -0.612141,0.66666 -0.336678,0 -1.027349,0.15933 -1.534823,0.35407 -0.507475,0.19474 -1.132011,0.14474 -1.387859,-0.11111 z M 508.75826,455.62914 c -8.93296,-8.96269 -16.67567,-16.29581 -17.20601,-16.29581 -0.53034,0 -0.77884,-0.3 -0.55223,-0.66666 0.64448,-1.04278 3,-0.78106 3,0.33333 0,0.55 0.45,1 1,1 0.55,0 1,0.45 1,1 0,0.55 0.45,1 1,1 0.55,0 1,0.45 1,1 0,0.55 0.45,1 1,1 0.55,0 1,0.45 1,1 0,0.55 0.45,1 1,1 0.55,0 1,0.45 1,1 0,0.55 0.45,1 1,1 0.55,0 1,0.45 1,1 0,0.55 0.45,1 1,1 0.55,0 1,0.45 1,1 0,0.55 0.45,1 1,1 0.55,0 1,0.45 1,1 0,0.55 0.45,1 1,1 0.55,0 1,0.45 1,1 0,0.55 0.45,1 1,1 0.55,0 1,0.45 1,1 0,0.55 0.45,1 1,1 0.55,0 1,0.45 1,1 0,0.55 0.45,1 1,1 0.55,0 1,0.45 1,1 0,0.55 0.45,1 1,1 0.55,0 1,0.45 1,1 0,0.55 0.45,1 1,1 0.55,0 1,0.45 1,1 0,0.55 0.45,1 1,1 0.55,0 1,0.45 1,1 0,0.55 0.45,1 1,1 0.55,0 1,0.45 1,1 0,0.55 0.45,1 1,1 0.55,0 1,0.45 1,1 0,0.55 -0.225,0.98311 -0.5,0.96247 -0.275,-0.0206 -7.80879,-7.37064 -16.74176,-16.33333 z m 142.74177,15.89555 C 649.12801,471.07544 649.75499,470 652.38892,470 c 1.54776,0 2.29597,0.27875 2.125,0.79167 -0.31509,0.94526 -1.006,1.1133 -3.01389,0.73302 z m -469.66669,-1.29954 c 0.45833,-0.18495 0.83333,-0.76126 0.83333,-1.28071 0,-0.51944 0.45,-0.94444 1,-0.94444 0.55,0 1,-0.45 1,-1 0,-0.55 0.45,-1 1,-1 0.55,0 1,-0.45 1,-1 0,-0.55 0.45,-1 1,-1 0.55,0 1,-0.45 1,-1 0,-0.55 0.45,-1 1,-1 0.55,0 1,-0.45 1,-1 0,-0.55 0.45,-1 1,-1 0.55,0 1,-0.45 1,-1 0,-0.55 0.45,-1 1,-1 0.55,0 1.00001,-0.45 1.00001,-1 0,-0.55 0.41501,-1 0.92224,-1 0.50724,0 1.09741,-0.66983 1.3115,-1.4885 0.30158,-1.15325 0.56847,-1.30929 1.18494,-0.69282 0.61647,0.61648 -1.02393,2.60344 -7.28317,8.82184 -4.44337,4.41438 -8.4666,8.00246 -8.94052,7.97352 -0.66993,-0.0409 -0.67623,-0.12746 -0.0283,-0.38889 z M 47.833335,469.53854 c -0.641666,-0.16663 -1.166666,-0.58097 -1.166666,-0.92076 0,-0.83472 4.480977,-0.79091 5,0.0489 0.226612,0.36666 0.118854,0.66666 -0.239464,0.66666 -0.358317,0 -1.051022,0.11434 -1.539345,0.25409 -0.488322,0.13976 -1.412858,0.11776 -2.054525,-0.0489 z m 607.991865,-0.004 C 654.16376,469.10721 655.07978,468 657.09493,468 c 1.00277,0 1.57623,0.31994 1.41899,0.79167 -0.31338,0.94014 -1.08939,1.1546 -2.68872,0.74306 z M 43.500002,467.47479 c -0.825,-0.12881 -1.5,-0.51333 -1.5,-0.85449 0,-0.79111 4.466016,-0.81764 4.953157,-0.0294 0.447084,0.7234 -1.420049,1.20133 -3.453157,0.88392 z m 617.655388,0.0413 C 658.60257,467.13757 659.55762,466 662.42826,466 c 1.51739,0 2.25608,0.28039 2.08566,0.79167 -0.3173,0.95189 -0.93141,1.08436 -3.35853,0.72445 z M 38.465179,465.57629 C 37.494615,464.60572 38.069286,464 39.960657,464 c 1.078361,0 2.146066,0.3 2.372678,0.66667 0.226613,0.36666 -0.03115,0.66666 -0.572797,0.66666 -0.541651,0 -1.400026,0.15933 -1.907501,0.35407 -0.507475,0.19474 -1.132011,0.14474 -1.387858,-0.11111 z m 627.368181,-0.04 C 663.91223,465.04109 664.51459,464 666.72225,464 c 1.29045,0 1.95733,0.29467 1.79167,0.79167 -0.313,0.939 -1.08961,1.15473 -2.68056,0.74463 z M 34.465179,463.57629 C 33.545547,462.65666 34.029679,462 35.627324,462 c 0.895027,0 1.812732,0.3 2.039344,0.66667 0.226613,0.36666 0.118854,0.66666 -0.239463,0.66666 -0.358318,0 -1.066693,0.15933 -1.574168,0.35407 -0.507475,0.19474 -1.132011,0.14474 -1.387858,-0.11111 z M 669.8252,463.53473 C 668.16376,463.10721 669.07979,462 671.09493,462 c 1.00277,0 1.57623,0.31994 1.41899,0.79167 -0.31338,0.94014 -1.08939,1.1546 -2.68872,0.74306 z m -200.25076,-1.2014 c -0.21106,-0.55 -0.81106,-1 -1.33334,-1 -0.52227,0 -1.12227,-0.45 -1.33333,-1 -0.21105,-0.55 -0.80164,-1 -1.31241,-1 -0.51077,0 -0.92867,-0.45 -0.92867,-1 0,-0.55 -0.45,-1 -1,-1 -0.55,0 -1,-0.45 -1,-1 0,-0.55 -0.45,-1 -1,-1 -0.55,0 -1,-0.45 -1,-1 0,-0.55 -0.45,-1 -1,-1 -0.55,0 -1,-0.45 -1,-1 0,-0.62222 -0.62963,-1 -1.66667,-1 -1.87492,0 -2.23121,-0.97404 -0.58706,-1.60496 0.72976,-0.28004 2.10928,0.61499 4.25716,2.76201 5.2502,5.24809 7.84185,7.50962 8.60581,7.50962 0.39825,0 0.72409,0.41667 0.72409,0.92593 0,0.50926 0.49271,0.88426 1.09491,0.83333 0.60221,-0.0509 1.22721,0.28241 1.38889,0.74074 0.42712,1.21076 -2.44393,1.04629 -2.90938,-0.16667 z M 29.308471,461.10144 c -1.615991,-0.68857 -1.606407,-0.70349 0.609635,-0.94907 1.238292,-0.13722 2.533118,0.0322 2.877392,0.37646 0.961576,0.96158 -1.590603,1.38067 -3.487027,0.57261 z M 673.8252,461.53473 C 672.16376,461.10721 673.07979,460 675.09493,460 c 1.00277,0 1.57623,0.31994 1.41899,0.79167 -0.31338,0.94014 -1.08939,1.1546 -2.68872,0.74306 z M 25.500001,459.48334 c -0.825,-0.13351 -1.5,-0.52188 -1.5,-0.86304 0,-0.79449 3.800794,-0.8153 4.29016,-0.0235 0.474695,0.76807 -0.874035,1.19661 -2.79016,0.88653 z m 652.666699,0.0722 C 676.71163,458.97353 677.26793,458 679.05558,458 c 1.03314,0 1.61664,0.31676 1.45834,0.79167 -0.31263,0.93788 -1.19464,1.22492 -2.34722,0.76389 z m 3.99584,-1.99865 c -0.46062,-0.1856 -0.66791,-0.61183 -0.46065,-0.94718 0.51185,-0.82819 4.29814,-0.77803 4.29814,0.0569 0,0.36666 -0.27546,0.66666 -0.61214,0.66666 -0.33668,0 -1.01168,0.12623 -1.5,0.28052 -0.48832,0.15428 -1.26473,0.12866 -1.72535,-0.0569 z M 20.000001,456.66667 C 20.000001,456.3 20.882296,456 21.960656,456 c 1.078361,0 2.146066,0.3 2.372678,0.66667 0.245202,0.39674 -0.548632,0.66666 -1.960655,0.66666 -1.304973,0 -2.372678,-0.3 -2.372678,-0.66666 z m -3.674478,-1.34598 c -0.708082,-1.1457 0.490302,-1.99786 2.185976,-1.55443 1.444658,0.37778 2.109748,1.56707 0.87636,1.56707 -0.336678,0 -1.056333,0.17046 -1.599233,0.37879 -0.5429,0.20833 -1.201297,0.0322 -1.463103,-0.39143 z m 670.236907,-0.0518 c -1.14057,-0.70492 -0.6272,-1.12169 1.70598,-1.38499 1.0588,-0.11948 2.04411,0.12039 2.18957,0.53304 0.32423,0.91984 -2.71148,1.58374 -3.89555,0.85195 z m -487.89575,-2.11002 c 0,-1.13712 2.0959,-3.15888 3.27471,-3.15888 0.46002,0 0.70411,0.375 0.54242,0.83333 -0.16168,0.45834 -0.74668,0.79834 -1.3,0.75556 -0.55331,-0.0428 -0.97102,0.37493 -0.92825,0.92825 0.0428,0.55331 -0.29722,1.13831 -0.75555,1.3 -0.45833,0.16168 -0.83333,-0.13453 -0.83333,-0.65826 z M 18.262008,452.27881 c 0.222563,-0.57999 0.404659,-1.32999 0.404659,-1.66667 0,-0.33668 0.3,-0.61214 0.666667,-0.61214 0.366667,0 0.666667,0.75 0.666667,1.66667 0,1.08635 -0.373023,1.66666 -1.071326,1.66666 -0.703014,0 -0.932208,-0.36253 -0.666667,-1.05452 z m 668.831012,0.59195 c -0.64404,-0.64403 -0.51102,-3.53743 0.16262,-3.53743 0.73933,0 1.40447,3.25872 0.74797,3.66446 -0.26635,0.16461 -0.67612,0.10745 -0.91059,-0.12703 z M 20.301778,449.28227 c -0.243969,-0.39475 0.188326,-1.30643 0.960655,-2.02597 0.772329,-0.71953 1.404235,-1.76426 1.404235,-2.32161 0,-0.55736 0.3,-0.82797 0.666666,-0.60136 1.042781,0.64448 0.781056,3 -0.333333,3 -0.555556,0 -1,0.5926 -1,1.33334 0,1.43383 -0.97426,1.787 -1.698223,0.6156 z m 182.003832,0.006 c -0.24215,-0.3918 0.18953,-0.8761 0.96065,-1.07775 0.77023,-0.20142 1.40042,-0.78123 1.40042,-1.28846 0,-0.50724 0.45,-0.92225 1,-0.92225 0.55,0 1,-0.45 1,-1 0,-0.55 0.45,-1 1,-1 0.55,0 1,-0.45 1,-1 0,-0.55 0.45,-1 1,-1 0.55,0 1,-0.45 1,-1 0,-0.55 0.45,-1 1,-1 0.55,0 1,-0.45 1,-1 0,-0.55 0.45,-1 1,-1 0.55,0 1,-0.45 1,-1 0,-0.55 0.375,-1.0127 0.83333,-1.02823 0.45833,-0.0155 1.56926,-0.91553 2.46873,-2 1.57118,-1.89436 4.03127,-2.6908 4.03127,-1.3051 0,0.36666 -0.45,0.66666 -1,0.66666 -0.55,0 -1,0.45 -1,1 0,0.55 -0.32584,1 -0.72409,1 -0.82955,0 -3.27287,2.18878 -10.60477,9.5 -2.84971,2.84167 -5.3488,5.16667 -5.55354,5.16667 -0.20473,0 -0.57014,-0.32019 -0.812,-0.71154 z m 482.59483,-0.46662 c -0.21409,-0.81868 -0.80426,-1.48851 -1.3115,-1.48851 -0.53928,0 -0.92224,-0.69208 -0.92224,-1.66666 0,-0.91667 0.3,-1.66667 0.66666,-1.66667 0.36667,0 0.66667,0.43831 0.66667,0.97403 0,0.53572 0.65834,1.58737 1.46299,2.33701 1.15592,1.0769 1.29126,1.53471 0.64483,2.18114 -0.64643,0.64643 -0.89986,0.50573 -1.20741,-0.67034 z m -232.23375,-0.48851 c 0,-0.55555 -0.5926,-1 -1.33334,-1 -1.43383,0 -1.787,-0.97426 -0.6156,-1.69822 0.39475,-0.24397 1.30643,0.18833 2.02597,0.96066 0.71953,0.77232 1.76426,1.40423 2.32161,1.40423 0.55736,0 0.82797,0.3 0.60136,0.66667 -0.64448,1.04278 -3,0.78105 -3,-0.33334 z m -6,-3.92224 c 0,-0.50724 -0.66983,-1.09741 -1.48851,-1.3115 -1.17607,-0.30755 -1.31677,-0.56098 -0.67034,-1.20741 0.64643,-0.64643 1.10424,-0.51109 2.18114,0.64483 0.74964,0.80465 1.80129,1.46299 2.33701,1.46299 0.53572,0 0.97403,0.3 0.97403,0.66667 0,0.36666 -0.75,0.66666 -1.66667,0.66666 -0.97458,0 -1.66666,-0.38296 -1.66666,-0.92224 z M 24.385498,443.56221 c -0.255641,-0.66619 0.109541,-1.59097 0.930144,-2.35548 0.743064,-0.69227 1.351026,-1.54698 1.351026,-1.89937 0,-0.35238 0.3,-0.64069 0.666667,-0.64069 0.366666,0 0.666666,0.6 0.666666,1.33333 0,0.74074 -0.444444,1.33333 -1,1.33333 -0.55,0 -1,0.5823 -1,1.29399 0,1.70368 -1.079599,2.32882 -1.614503,0.93489 z M 680.6667,442.66667 c 0,-0.74074 -0.44445,-1.33334 -1,-1.33334 -0.62223,0 -1,-0.62963 -1,-1.66666 0,-0.91667 0.3,-1.66667 0.66666,-1.66667 0.36667,0 0.66667,0.43831 0.66667,0.97403 0,0.53572 0.6319,1.56274 1.40423,2.28227 0.77233,0.71954 1.20463,1.63122 0.96066,2.02597 -0.72396,1.1714 -1.69822,0.81823 -1.69822,-0.6156 z m -421.33336,0 c 0,-0.36667 0.28832,-0.66667 0.6407,-0.66667 0.35238,0 1.2071,-0.60796 1.89937,-1.35103 0.76451,-0.8206 1.68928,-1.18578 2.35547,-0.93014 1.39394,0.5349 0.76879,1.6145 -0.93488,1.6145 -0.71169,0 -1.29399,0.45 -1.29399,1 0,0.55556 -0.59259,1 -1.33333,1 -0.73334,0 -1.33334,-0.3 -1.33334,-0.66666 z m 181.92106,-1.83334 c -0.0434,-0.275 -0.0434,-0.725 0,-1 0.0434,-0.275 -0.52105,-0.5 -1.25438,-0.5 -0.74074,0 -1.33333,-0.44444 -1.33333,-1 0,-0.55 -0.5823,-1 -1.29399,-1 -1.70368,0 -2.32882,-1.0796 -0.93489,-1.6145 0.63545,-0.24384 1.60186,0.0773 2.2975,0.76348 2.34181,2.30994 3.55212,3.16103 4.5117,3.17262 0.53436,0.006 1.09739,0.38674 1.25117,0.84507 0.17575,0.52377 -0.36014,0.83333 -1.44261,0.83333 -0.94722,0 -1.75774,-0.225 -1.80117,-0.5 z m -176.58772,-2.16666 c 0,-0.36667 0.43831,-0.66667 0.97403,-0.66667 0.53571,0 1.54043,-0.60796 2.2327,-1.35103 0.76451,-0.8206 1.68929,-1.18578 2.35547,-0.93014 1.39394,0.5349 0.76879,1.6145 -0.93488,1.6145 -0.71169,0 -1.29399,0.45 -1.29399,1 0,0.62223 -0.62963,1 -1.66667,1 -0.91666,0 -1.66666,-0.3 -1.66666,-0.66666 z M 28.399674,437.59915 c -0.243651,-0.63495 0.200198,-1.71086 1.09534,-2.65515 1.741434,-1.83706 2.504987,-2.0232 2.504987,-0.61067 0,0.55 -0.45,1 -1,1 -0.622222,0 -1,0.62963 -1,1.66667 0,1.8687 -0.973321,2.2331 -1.600327,0.59915 z m 648.730096,0.6417 c -0.25469,-0.25469 -0.46307,-1.01307 -0.46307,-1.68529 0,-0.67223 -0.45,-1.22223 -1,-1.22223 -0.55,0 -1,-0.45 -1,-1 0,-1.42092 0.76537,-1.22437 2.54667,0.65398 1.08747,1.14672 1.37341,1.94056 0.96307,2.67378 -0.32098,0.57356 -0.79198,0.83445 -1.04667,0.57976 z m -188.5404,-0.96941 c -0.87899,-0.55669 -0.68732,-0.60477 2.41065,-0.60477 0.18333,0 0.40833,0.1964 0.5,0.43644 0.26328,0.68944 -1.89111,0.81403 -2.91065,0.16833 z M 271.00001,434.66667 C 270.7734,434.3 271.04401,434 271.60136,434 c 0.55736,0 1.56165,-0.5885 2.23175,-1.30777 0.8052,-0.86428 1.71579,-1.1777 2.68514,-0.92421 1.866,0.48797 1.25282,1.56531 -0.89092,1.56531 -1.00206,0 -1.62732,0.38423 -1.62732,1 0,1.11439 -2.35552,1.37612 -3,0.33334 z M 32.521765,432.96621 c -0.52417,-0.52417 0.236807,-3.63288 0.889288,-3.63288 0.758275,0 0.771566,3.14178 0.01527,3.6092 -0.315524,0.19501 -0.722575,0.20566 -0.904557,0.0237 z m 640.571255,-0.0954 c -0.64404,-0.64403 -0.51102,-3.53743 0.16262,-3.53743 0.73933,0 1.40447,3.25872 0.74797,3.66446 -0.26635,0.16461 -0.67612,0.10745 -0.91059,-0.12703 z M 222.45834,431.56944 C 221.58894,430.70005 222.00401,430 223.3889,430 c 0.77583,0 1.27241,0.34944 1.125,0.79167 -0.32474,0.97423 -1.43791,1.39542 -2.05556,0.77777 z M 34.308499,429.29315 c -0.247665,-0.40073 0.181605,-1.31731 0.953934,-2.03685 0.77233,-0.71953 1.404235,-1.74655 1.404235,-2.28227 0,-0.53572 0.3,-0.97403 0.666667,-0.97403 0.366667,0 0.666667,0.75 0.666667,1.66667 0,1.03703 -0.377778,1.66666 -1,1.66666 -0.55,0 -1,0.4323 -1,0.96066 0,1.26405 -1.119206,1.92515 -1.691503,0.99916 z m 636.591941,-0.47131 c -0.21409,-0.81868 -0.80426,-1.48851 -1.3115,-1.48851 -0.50723,0 -0.92224,-0.6 -0.92224,-1.33333 0,-0.73333 -0.375,-1.25833 -0.83334,-1.16667 -0.47493,0.095 -0.92707,-0.65305 -1.05129,-1.73932 -0.15464,-1.35225 0.039,-1.81978 0.66667,-1.60927 0.48654,0.16319 0.8899,0.73391 0.89636,1.26827 0.0118,0.97579 0.87843,2.19373 3.28458,4.61601 1.02424,1.03109 1.1246,1.47673 0.47817,2.12316 -0.64643,0.64643 -0.89986,0.50573 -1.20741,-0.67034 z M 38.390669,423.57568 c -0.274013,-0.71407 0.383897,-1.8599 1.930143,-3.3616 1.290221,-1.25304 2.345856,-2.71382 2.345856,-3.24617 0,-0.53235 0.416667,-0.96791 0.925926,-0.96791 0.50926,0 0.88426,-0.49271 0.833334,-1.09491 -0.05093,-0.60221 0.282407,-1.22721 0.740741,-1.38889 1.210758,-0.42712 1.046287,2.44393 -0.166667,2.90938 -0.55,0.21106 -1,0.95164 -1,1.64575 0,0.6941 -0.45,1.262 -1,1.262 -0.55,0 -1,0.45 -1,1 0,0.55 -0.45,1 -1,1 -0.55,0 -1,0.5823 -1,1.29399 0,1.69586 -1.07859,2.33145 -1.609333,0.94836 z m 626.509771,-2.75384 c -0.21409,-0.81868 -0.80426,-1.48851 -1.3115,-1.48851 -0.53928,0 -0.92224,-0.69208 -0.92224,-1.66666 0,-0.91667 0.3,-1.66667 0.66666,-1.66667 0.36667,0 0.66667,0.43831 0.66667,0.97403 0,0.53572 0.65834,1.58737 1.46299,2.33701 1.15592,1.0769 1.29126,1.53471 0.64483,2.18114 -0.64643,0.64643 -0.89986,0.50573 -1.20741,-0.67034 z m 276.76627,-1.51146 c -10.65066,-1.63773 -17.40431,-6.25122 -21.20907,-14.48816 -1.40827,-3.04877 -1.46445,-4.04105 -1.65989,-29.32222 l -0.20228,-26.16667 h 8.66468 8.66467 l 0.20428,24.5 c 0.19993,23.9785 0.23639,24.56012 1.71325,27.32436 2.08446,3.90153 5.60756,5.62662 11.49102,5.62662 5.81261,0 9.0763,-1.59717 11.33857,-5.54884 l 1.66143,-2.90214 0.20428,-24.5 0.20428,-24.5 h 8.66467 8.66468 l -0.20229,26.16667 -0.20228,26.16667 -1.92522,3.92521 c -3.32812,6.78554 -9.25431,11.24748 -17.34737,13.06117 -4.58165,1.02677 -14.14245,1.36236 -18.72741,0.65733 z m 64.66669,-0.0722 c -2.5667,-0.32623 -6.69169,-1.23005 -9.16669,-2.0085 l -4.5,-1.41535 v -6.90718 c 0,-3.99466 0.27135,-6.90717 0.64351,-6.90717 0.35394,0 2.07894,0.91247 3.83334,2.02771 4.68234,2.97647 11.40314,4.81825 17.78524,4.87389 6.7432,0.0588 9.7379,-1.2342 9.7379,-4.20443 0,-1.76847 -1.434,-4.0305 -2.5551,-4.0305 -2.5028,0 -17.7009,-3.77844 -20.1114,-4.99994 -7.9053,-4.0059 -10.80702,-12.47621 -6.88233,-20.08987 1.58724,-3.07916 6.75963,-7.1799 10.79083,-8.55503 7.953,-2.71299 19.7141,-2.69312 29.4899,0.0498 l 3.9348,1.10404 v 6.57882 c 0,3.61835 -0.2622,6.57881 -0.5827,6.57881 -0.3205,0 -1.8955,-0.72611 -3.5,-1.61358 -11.5184,-6.37088 -29.8869,-4.19877 -24.1156,2.85171 0.9468,1.15659 3.1885,1.87439 10.6807,3.41998 9.9238,2.04721 11.9979,2.8159 15.4616,5.73043 3.877,3.2623 5.2194,7.87054 3.9867,13.68549 -0.6248,2.94726 -1.3756,4.2045 -4.1795,6.99873 -6.2719,6.2503 -16.8457,8.59952 -30.7512,6.83211 z m 59.8842,0.099 c -3.9845,-0.83573 -6.4669,-2.28322 -8.8434,-5.1566 -3.6885,-4.45975 -4.0408,-6.95678 -4.0408,-28.6349 V 366 h 8.1775 8.1775 l -0.2506,13.8652 c -0.2968,16.41562 0.3845,22.26007 2.8864,24.76194 1.4939,1.49394 2.2668,1.70619 6.2126,1.70619 2.9989,0 5.4471,-0.42415 7.3182,-1.26791 l 2.8117,-1.26792 V 384.89875 366 h 8.3333 8.3334 v 26.33333 26.33334 H 1097 1088.6667 V 416 c 0,-1.46667 -0.1787,-2.66667 -0.3971,-2.66667 -0.2184,0 -1.2533,0.6097 -2.2998,1.35489 -5.6056,3.99152 -13.7487,5.90813 -19.7522,4.64895 z m 64.4162,-0.24516 c -8.4767,-2.28616 -13.4517,-9.55433 -12.3296,-18.01269 1.2992,-9.79392 9.3049,-14.54992 27.0292,-16.05732 7.4975,-0.63764 8.6666,-0.95563 8.6666,-2.35715 0,-2.18102 -3.1225,-5.12015 -6.2859,-5.9167 -6.4509,-1.62435 -14.6811,-0.58343 -24.1665,3.05648 -0.6921,0.26559 -0.8809,-1.02476 -0.8809,-6.02171 0,-5.48152 0.1611,-6.40719 1.1667,-6.70341 4.3792,-1.29002 11.1657,-1.99862 19.5,-2.03607 8.3557,-0.0375 10.3448,0.16875 14.6666,1.52118 3.925,1.2282 5.5773,2.16496 7.685,4.35679 4.0941,4.25778 4.3151,5.69065 4.3151,27.98927 v 19.75599 H 1162 1154 V 416 c 0,-1.46667 -0.1939,-2.66667 -0.4309,-2.66667 -0.2371,0 -2.0068,1.04592 -3.9327,2.32426 -5.8529,3.88496 -12.7262,5.12719 -19.0026,3.43442 z m 19.8662,-12.06785 3.5,-1.62949 v -5.78929 -5.78929 l -5.1666,0.4567 c -10.0134,0.88511 -13.305,2.66073 -13.958,7.5294 -0.333,2.48218 -0.1449,3.03086 1.6566,4.8323 1.8389,1.8389 2.4333,2.03156 6.2501,2.02566 3.0641,-0.005 5.1754,-0.45225 7.7179,-1.63599 z m 132.1667,12.02119 c -7.5613,-1.6869 -13.5053,-6.17861 -16.6385,-12.57333 -6.7173,-13.70961 -2.627,-31.24812 8.8112,-37.78074 8.7012,-4.96947 22.877,-5.25741 31.9118,-0.64819 3.854,1.96616 8.4238,6.78233 10.2722,10.82591 3.5534,7.77356 3.5587,19.16087 0.012,26.90701 -1.8607,4.06426 -6.4253,8.87868 -10.2846,10.84757 -6.1708,3.14808 -16.2748,4.16408 -24.0845,2.42177 z m 15.1299,-12.12633 c 3.5759,-2.66976 4.5368,-5.75915 4.5368,-14.58569 0,-7.30657 -0.1445,-8.25429 -1.6667,-10.9337 -2.2857,-4.02345 -5.2577,-5.55111 -10.1756,-5.23045 -7.1256,0.46461 -9.9439,4.35042 -10.3795,14.31122 -0.4197,9.59516 1.5759,15.19667 6.1526,17.26999 2.9136,1.3199 9.2642,0.86208 11.5324,-0.83137 z m 44.5368,12.31918 c -2.5667,-0.32623 -6.6917,-1.23005 -9.1667,-2.0085 l -4.5,-1.41535 v -6.90718 c 0,-3.99466 0.2714,-6.90717 0.6435,-6.90717 0.354,0 2.079,0.91247 3.8334,2.02771 4.6823,2.97647 11.4031,4.81825 17.7852,4.87389 6.7432,0.0588 9.7379,-1.2342 9.7379,-4.20443 0,-1.76847 -1.434,-4.0305 -2.5551,-4.0305 -2.5028,0 -17.7009,-3.77844 -20.1114,-4.99994 -7.9053,-4.0059 -10.807,-12.47621 -6.8823,-20.08987 1.5872,-3.07916 6.7597,-7.1799 10.7908,-8.55503 7.953,-2.71299 19.7141,-2.69312 29.4899,0.0498 l 3.9348,1.10404 v 6.57882 c 0,3.61835 -0.2622,6.57881 -0.5827,6.57881 -0.3205,0 -1.8955,-0.72611 -3.5,-1.61358 -11.5183,-6.37088 -29.8869,-4.19877 -24.1156,2.85171 0.9468,1.15659 3.1885,1.87439 10.6807,3.41998 9.9238,2.04721 11.9979,2.8159 15.4616,5.73043 3.877,3.2623 5.2194,7.87054 3.9867,13.68549 -0.6248,2.94726 -1.3756,4.2045 -4.1795,6.99873 -6.2719,6.2503 -16.8457,8.59952 -30.7512,6.83211 z m 92.2021,-0.13696 c -9.0705,-2.54083 -14.4465,-10.55908 -15.5721,-23.22569 -1.1519,-12.96166 4.571,-24.37317 14.503,-28.91912 3.6432,-1.66754 4.9519,-1.91349 9.867,-1.85446 4.0994,0.0492 6.6415,0.45941 9.1913,1.48304 1.9386,0.77825 3.6636,1.41499 3.8334,1.41499 0.1697,0 0.3086,-4.95 0.3086,-11 v -11 h 8.3334 8.3333 v 36.33333 36.33334 h -8.3333 -8.3334 v -2.73214 -2.73213 l -2.1666,1.44704 c -6.6923,4.46955 -14.0468,6.10949 -19.9646,4.4518 z m 19.6312,-13.2858 2.5,-1.08074 v -13.33601 -13.33602 l -2.5,-0.69428 c -5.8564,-1.62642 -11.0353,-0.44894 -14.3985,3.27371 -3.0461,3.37174 -3.9783,6.97305 -3.6409,14.06694 0.317,6.66468 1.6714,9.64206 5.2288,11.49367 2.7908,1.45263 8.9879,1.26529 12.8106,-0.38727 z m 57.0064,13.48598 c -12.4754,-1.45294 -21.3092,-7.86573 -24.1877,-17.55893 -1.3017,-4.38324 -1.2639,-13.88127 0.073,-18.45482 2.6931,-9.2097 9.3738,-15.16681 19.7535,-17.61399 10.5252,-2.48147 21.7076,-0.26515 27.4182,5.4342 4.5793,4.57032 6.4156,9.91937 6.4282,18.72545 l 0.01,5.5 h -19.0877 -19.0878 l 0.3535,2.63545 c 0.5113,3.81251 2.8163,6.6164 7.0216,8.54169 3.064,1.40274 4.6338,1.66977 9.7271,1.65461 6.5305,-0.0194 11.3688,-1.31544 16.8054,-4.50152 1.5613,-0.91496 3.0103,-1.66356 3.22,-1.66356 0.2097,0 0.3813,3.10376 0.3813,6.89724 v 6.89724 l -5.0095,1.45556 c -8.6215,2.5051 -15.1176,3.0646 -23.8175,2.05138 z m 13.2776,-34.36663 c 0.6221,-1.62119 -1.8787,-6.95346 -4.0019,-8.53286 -2.4598,-1.82987 -9.6899,-1.92701 -12.9782,-0.17438 -2.72,1.44973 -4.7981,4.74155 -4.8014,7.60578 l -0,2.16667 h 10.6876 c 9.1759,0 10.7454,-0.15067 11.0964,-1.06521 z m -338.4506,7.39854 V 366 h 8.3333 8.3333 v 3.66667 c 0,2.01666 0.1534,3.66666 0.3409,3.66666 0.1875,0 2.0625,-1.16996 4.1667,-2.59991 4.2925,-2.91709 9.6442,-4.73342 13.9468,-4.73342 h 2.879 l -5e-4,7.83333 -4e-4,7.83334 -8.8329,0.0315 c -5.2238,0.0186 -9.582,0.35241 -10.6662,0.81684 l -1.8334,0.7853 v 17.68317 17.68317 h -8.3333 -8.3333 z m 47.3333,0 V 366 h 8.3333 8.3334 v 26.33333 26.33334 h -8.3334 -8.3333 z m 354,-8.3762 v -34.70954 l 20.8333,0.25445 c 22.5778,0.27575 23.6427,0.42569 28.9544,4.07678 6.6327,4.55906 9.1235,12.65229 6.5832,21.39054 -1.2489,4.29608 -5.8325,9.81267 -10.0323,12.07443 -1.2862,0.69268 -2.3386,1.4824 -2.3386,1.75495 0,0.27254 4.8916,6.72932 10.8703,14.34839 5.9786,7.61908 11.0963,14.22787 11.3726,14.6862 0.3937,0.65286 -1.8046,0.83334 -10.1502,0.83334 h -10.6527 l -9.7142,-13 -9.7143,-13 h -4.0058 -4.0057 v 13 13 h -9 -9 z m 31.6102,-3.92768 c 5.9851,-1.38819 9.3308,-8.10671 6.7477,-13.55022 -1.6755,-3.53086 -4.6351,-4.65621 -13.1912,-5.01589 l -7.1667,-0.30127 v 9.7523 9.7523 l 5.5,-0.0159 c 3.025,-0.009 6.6746,-0.28834 8.1102,-0.62131 z m -957.81383,36.2114 c -0.25469,-0.25469 -0.46307,-1.01307 -0.46307,-1.68529 0,-0.67223 -0.45001,-1.22223 -1.00001,-1.22223 -0.55,0 -1,-0.45 -1,-1 0,-0.55 -0.45,-1 -1,-1 -0.62222,0 -1,-0.62963 -1,-1.66666 0,-0.91667 0.3,-1.66667 0.66667,-1.66667 0.36667,0 0.66667,0.43556 0.66667,0.96791 0,0.53235 1.07586,2.01277 2.3908,3.28983 1.78332,1.73193 2.23978,2.5918 1.79641,3.38405 -0.32692,0.58417 -0.80278,0.85375 -1.05747,0.59906 z m -614.821271,-2.9477 c -0.247665,-0.40073 0.106606,-1.29122 0.787268,-1.97887 2.355241,-2.37941 3.214146,-3.59389 3.225832,-4.56127 0.0065,-0.53436 0.409818,-1.10508 0.896362,-1.26827 0.627621,-0.21051 0.821304,0.25702 0.666667,1.60927 -0.12422,1.08627 -0.576356,1.83431 -1.051292,1.73932 -0.458334,-0.0917 -0.833334,0.43334 -0.833334,1.16667 0,0.74074 -0.444444,1.33333 -1,1.33333 -0.55,0 -1,0.4323 -1,0.96066 0,1.26405 -1.119206,1.92515 -1.691503,0.99916 z m 608.821271,-5.0523 c -0.25469,-0.25469 -0.46308,-1.01307 -0.46308,-1.68529 0,-0.67223 -0.45,-1.22223 -1,-1.22223 -0.55,0 -1,-0.45 -1,-1 0,-0.55 -0.45,-1 -1,-1 -0.55555,0 -1,-0.59259 -1,-1.33333 0,-0.73333 -0.375,-1.25833 -0.83333,-1.16667 -0.46869,0.0937 -0.92564,-0.63553 -1.04428,-1.66666 -0.11602,-1.00834 0.10898,-1.83334 0.5,-1.83334 0.39102,0 0.74845,0.3 0.79428,0.66667 0.0458,0.36667 0.12083,0.89904 0.16667,1.18305 0.1026,0.63581 1.40027,2.18338 4.30747,5.13697 1.6446,1.67085 2.06926,2.5364 1.62974,3.32177 -0.32692,0.58417 -0.80278,0.85375 -1.05747,0.59906 z M 52.311472,405.29796 c -0.417134,-0.67494 0.30932,-1.69321 3.18853,-4.46937 0.641667,-0.6187 1.166667,-1.47677 1.166667,-1.90682 0,-0.43005 1.35,-2.2111 3,-3.95789 1.65,-1.74679 3,-3.57826 3,-4.06993 0,-0.49167 0.3,-0.89395 0.666667,-0.89395 1.059815,0 0.772213,2.66801 -0.333333,3.09225 -0.55,0.21105 -1,0.80164 -1,1.31241 0,0.51077 -0.415011,0.92867 -0.922246,0.92867 -0.507235,0 -1.087043,0.63019 -1.288462,1.40041 -0.201418,0.77023 -0.66599,1.21514 -1.032382,0.9887 -0.368316,-0.22763 -0.760971,0.41304 -0.878205,1.43292 -0.119513,1.03971 -0.575674,1.77191 -1.045372,1.67797 -0.458334,-0.0917 -0.833334,0.43334 -0.833334,1.16667 0,0.74074 -0.444444,1.33333 -1,1.33333 -0.55,0 -1,0.4323 -1,0.96066 0,1.26096 -1.118635,1.92608 -1.68853,1.00397 z m 386.534568,-5.09329 c 0.64865,-0.16903 1.54865,-0.15791 2,0.0247 0.45136,0.18261 -0.0794,0.32091 -1.17935,0.30732 -1.1,-0.0136 -1.46929,-0.163 -0.82065,-0.33203 z m -4.38084,-0.62838 C 433.54556,398.65666 434.0297,398 435.62734,398 c 0.89503,0 1.81273,0.3 2.03935,0.66667 0.22661,0.36666 0.11885,0.66666 -0.23947,0.66666 -0.35832,0 -1.06669,0.15933 -1.57417,0.35407 -0.50747,0.19474 -1.13201,0.14474 -1.38785,-0.11111 z m -2.96518,-2.08847 c -2.20515,-0.36344 -1.82729,-1.48782 0.5,-1.48782 1.1,0 2,0.28229 2,0.62732 0,0.88458 -0.76216,1.14692 -2.5,0.8605 z m 215.40042,-0.66598 c -0.21409,-0.81868 -0.80426,-1.48851 -1.3115,-1.48851 -0.50724,0 -0.92225,-0.45 -0.92225,-1 0,-0.55 -0.45,-1 -1,-1 -0.55555,0 -1,-0.59259 -1,-1.33333 0,-0.74074 -0.44444,-1.33333 -1,-1.33333 -0.63082,0 -1,-0.63581 -1,-1.72223 0,-2.00532 1.64879,-1.89563 1.69781,0.11295 0.0171,0.70177 0.39212,1.20094 0.83333,1.10928 0.44121,-0.0917 0.8022,0.26889 0.8022,0.80124 0,0.53235 1.10311,2.03924 2.45136,3.34864 1.91764,1.86239 2.27576,2.55633 1.64483,3.18726 -0.63093,0.63093 -0.89128,0.48244 -1.19578,-0.68197 z m -373.40043,-0.61472 c 0.64167,-0.16769 1.69167,-0.16769 2.33334,0 0.64166,0.16768 0.11666,0.30488 -1.16667,0.30488 -1.28333,0 -1.80833,-0.1372 -1.16667,-0.30488 z m 3.30402,-0.71689 c -0.44678,-0.14893 -0.64275,-0.54515 -0.43549,-0.8805 0.48351,-0.78235 4.29814,-0.80079 4.29814,-0.0208 0,0.68015 -2.66239,1.30137 -3.86265,0.90128 z m 150.69599,-0.007 c -0.825,-0.13351 -1.5,-0.52188 -1.5,-0.86304 0,-0.79449 3.80079,-0.8153 4.29016,-0.0235 0.47469,0.76807 -0.87404,1.19661 -2.79016,0.88653 z m -146.0099,-1.95995 C 279.38098,393.12474 280.31971,392 282.76158,392 c 1.26008,0 1.91724,0.2969 1.75232,0.79167 -0.3154,0.94621 -1.00549,1.1132 -3.02378,0.73172 z m 140.97508,0.0529 C 421.49463,392.60572 422.0693,392 423.96067,392 c 1.07836,0 2.14607,0.3 2.37268,0.66667 0.22661,0.36666 -0.0311,0.66666 -0.5728,0.66666 -0.54165,0 -1.40002,0.15933 -1.9075,0.35407 -0.50747,0.19474 -1.13201,0.14474 -1.38785,-0.11111 z M 285.82518,391.53473 C 284.16374,391.10721 285.07977,390 287.09491,390 c 1.00277,0 1.57623,0.31994 1.41899,0.79167 -0.31338,0.94014 -1.08938,1.1546 -2.68872,0.74306 z m 130.64001,0.0416 C 415.45279,390.56388 416.10701,390 418.29401,390 c 1.26169,0 2.4794,0.3 2.70601,0.66667 0.22661,0.36666 -0.18115,0.66666 -0.90613,0.66666 -0.72499,0 -1.73336,0.15933 -2.24084,0.35407 -0.50747,0.19474 -1.13201,0.14474 -1.38786,-0.11111 z M 64.325496,389.32065 c -0.230925,-0.37365 1.10137,-2.23288 2.960655,-4.13163 1.859285,-1.89875 3.380519,-3.84304 3.380519,-4.32065 0,-0.4776 0.45,-0.86837 1,-0.86837 0.55,0 0.964473,-0.225 0.921052,-0.5 -0.196923,-1.24718 0.138291,-2.16667 0.789896,-2.16667 0.391022,0 0.616022,0.825 0.5,1.83334 -0.118644,1.03113 -0.575586,1.7604 -1.044282,1.66666 -0.458333,-0.0917 -0.833333,0.43334 -0.833333,1.16667 0,0.74074 -0.444444,1.33333 -1,1.33333 -0.55,0 -1,0.45 -1,1 0,0.55 -0.45,1 -1,1 -0.55,0 -1,0.45 -1,1 0,0.55 -0.45,1 -1,1 -0.555556,0 -1,0.5926 -1,1.33334 0,1.41304 -0.971006,1.79227 -1.674507,0.65398 z m 347.174524,0.14565 c -0.825,-0.12414 -1.5,-0.50484 -1.5,-0.846 0,-0.79095 5.13232,-0.81822 5.61955,-0.0299 0.4274,0.69155 -1.96462,1.20012 -4.11955,0.87587 z M 289.66668,388.66667 C 289.89329,388.3 291.111,388 292.37269,388 c 1.26169,0 2.29399,0.3 2.29399,0.66667 0,0.36666 -1.21771,0.66666 -2.70601,0.66666 -1.63425,0 -2.54282,-0.26404 -2.29399,-0.66666 z m 7.16667,-1.15457 C 293.57409,387.11611 294.2302,386 297.72223,386 c 2.06238,0 2.96979,0.25732 2.79167,0.79167 -0.31864,0.95592 -0.86391,1.06266 -3.68055,0.72043 z m 109.63184,0.0642 C 405.49463,386.60572 406.0693,386 407.96067,386 c 1.07836,0 2.14607,0.3 2.37268,0.66667 0.22661,0.36666 -0.0311,0.66666 -0.5728,0.66666 -0.54165,0 -1.40002,0.15933 -1.9075,0.35407 -0.50747,0.19474 -1.13201,0.14474 -1.38786,-0.11111 z m 232.43525,-0.75445 c -0.21409,-0.81868 -0.80427,-1.48851 -1.3115,-1.48851 -0.50724,0 -0.92225,-0.45 -0.92225,-1 0,-0.55 -0.45,-1 -1,-1 -0.55,0 -1,-0.5679 -1,-1.262 0,-0.69411 -0.45,-1.43469 -1,-1.64575 -1.21295,-0.46545 -1.37742,-3.3365 -0.16666,-2.90938 0.45833,0.16168 0.79166,0.78668 0.74074,1.38889 -0.0509,0.6022 0.32407,1.09491 0.83333,1.09491 0.50926,0 0.92593,0.43556 0.92593,0.96791 0,0.53235 1.10311,2.03924 2.45136,3.34864 1.91764,1.86239 2.27576,2.55633 1.64483,3.18726 -0.63093,0.63093 -0.89128,0.48244 -1.19578,-0.68197 z M 302.83335,385.5121 C 299.5741,385.11611 300.2302,384 303.72224,384 c 2.06237,0 2.96978,0.25732 2.79166,0.79167 -0.31864,0.95592 -0.86391,1.06266 -3.68055,0.72043 z m 97.63184,0.0642 C 399.45279,384.56388 400.10701,384 402.29401,384 c 1.26169,0 2.47939,0.3 2.70601,0.66667 0.22661,0.36666 -0.18115,0.66666 -0.90613,0.66666 -0.72499,0 -1.73336,0.15933 -2.24084,0.35407 -0.50747,0.19474 -1.13201,0.14474 -1.38786,-0.11111 z m -91.31247,-2.10756 c -1.38268,-0.11965 -2.33997,-0.49906 -2.12732,-0.84314 0.50496,-0.81704 5.64128,-0.81546 5.64128,0.002 0,0.9164 -0.70279,1.08468 -3.51396,0.84141 z m 83.12475,-0.0798 C 391.34363,382.45395 392.45137,382 395.66668,382 c 2.01667,0 3.66667,0.27105 3.66667,0.60232 0,0.59575 -6.52045,1.32263 -7.05588,0.78657 z m -9.81228,-1.8126 C 381.32077,380.43187 382.27846,380 385.96067,380 c 2.17836,0 4.14607,0.3 4.37268,0.66667 0.25125,0.40652 -0.75268,0.66666 -2.5728,0.66666 -1.64165,0 -3.40002,0.15933 -3.9075,0.35407 -0.50747,0.19474 -1.13201,0.14474 -1.38786,-0.11111 z m -68.13184,-0.90962 C 314.55996,380.3 316.52766,380 318.70603,380 c 2.19599,0 3.96065,0.29703 3.96065,0.66667 0,0.37668 -1.902,0.66666 -4.37268,0.66666 -2.74535,0 -4.21934,-0.2481 -3.96065,-0.66666 z m 13.83333,-1.19363 C 320.7037,379.2103 321.11452,378 328.66668,378 c 3.30468,0 6,0.28181 6,0.62732 0,0.97326 -0.61271,1.05298 -6.5,0.84572 z m 37.83334,-0.80637 c 0,-0.4058 3,-0.66667 7.66666,-0.66667 4.66667,0 7.66667,0.26087 7.66667,0.66667 0,0.40579 -3,0.66666 -7.66667,0.66666 -4.66666,0 -7.66666,-0.26087 -7.66666,-0.66666 z M 74.32071,377.3129 c -0.240949,-0.38986 1.09376,-2.26975 2.966022,-4.17754 5.144392,-5.24199 5.379938,-5.52036 5.379938,-6.35795 0,-0.42758 0.3,-0.77741 0.666667,-0.77741 1.059815,0 0.772213,2.66801 -0.333333,3.09225 -0.55,0.21105 -1,0.80164 -1,1.31241 0,0.51077 -0.450001,0.92867 -1.000001,0.92867 -0.55,0 -1,0.45 -1,1 0,0.55 -0.45,1 -1,1 -0.55,0 -1,0.45 -1,1 0,0.55 -0.45,1 -1,1 -0.55,0 -1,0.4323 -1,0.96066 0,1.2513 -1.116856,1.92895 -1.679293,1.01891 z m 556.57973,-0.49106 c -0.21409,-0.81868 -0.80427,-1.48851 -1.3115,-1.48851 -0.50724,0 -0.92225,-0.45 -0.92225,-1 0,-0.55 -0.45,-1 -1,-1 -0.55,0 -1,-0.45 -1,-1 0,-0.55 -0.45,-1 -1,-1 -0.55,0 -1,-0.4179 -1,-0.92867 0,-0.51077 -0.45,-1.10136 -1,-1.31241 C 622.60889,368.68633 622.25177,366 623.25561,366 c 0.3239,0 0.75371,0.63018 0.95512,1.40041 0.20166,0.77112 0.68596,1.2028 1.07776,0.96066 0.39134,-0.24187 0.71154,-0.0313 0.71154,0.46796 0,0.49925 1.54323,2.48371 3.42941,4.40993 2.6299,2.68571 3.2465,3.68512 2.64483,4.28679 -0.60166,0.60167 -0.87533,0.43756 -1.17383,-0.70391 z m -294.90043,-0.15517 c 1.35121,-0.87322 27.127,-0.87322 27.66667,0 0.26994,0.43677 -4.60166,0.66314 -14.12732,0.65645 -9.63353,-0.007 -14.20193,-0.22826 -13.53935,-0.65645 z M 84.4031,365.60807 c -0.272047,-0.70894 1.006894,-2.48207 3.930144,-5.44877 2.383385,-2.4188 4.333427,-4.79416 4.333427,-5.27856 0,-0.48441 0.416666,-0.88074 0.925926,-0.88074 0.509259,0 0.884259,-0.49271 0.833333,-1.09491 -0.05093,-0.60221 0.282407,-1.22721 0.740741,-1.38889 0.527477,-0.18608 0.833333,0.33812 0.833333,1.42824 0,1.08642 -0.369176,1.72223 -1,1.72223 -0.555556,0 -1,0.59259 -1,1.33333 0,0.74074 -0.444444,1.33333 -1,1.33333 -0.55,0 -1,0.45 -1,1 0,0.55 -0.45,1 -1,1 -0.55,0 -1,0.45 -1,1 0,0.55 -0.45,1 -1,1 -0.55,0 -1,0.45 -1,1 0,0.55 -0.45,1 -1,1 -0.55,0 -1,0.5823 -1,1.29399 0,1.67688 -1.076153,2.3378 -1.596904,0.98075 z m 536.26359,-0.9414 c 0,-0.74074 -0.44444,-1.33334 -1,-1.33334 -0.55,0 -1,-0.45 -1,-1 0,-0.55 -0.45,-1 -1,-1 -0.55,0 -1,-0.45 -1,-1 0,-0.55 -0.45,-1 -1,-1 -0.55,0 -1,-0.45 -1,-1 0,-0.55 -0.45,-1 -1,-1 -0.56511,0 -1,-0.59696 -1,-1.37267 0,-0.75498 -0.30212,-1.18596 -0.67137,-0.95775 -0.36926,0.22821 -0.87747,-0.12908 -1.12937,-0.79399 -0.25189,-0.66491 -0.84977,-1.60535 -1.32862,-2.08987 -1.10922,-1.12237 -1.13599,-2.99044 -0.0373,-2.60285 0.45833,0.16168 0.7922,0.78345 0.74193,1.38171 -0.0503,0.59826 0.19493,0.91078 0.54487,0.6945 0.34995,-0.21627 0.80107,0.23695 1.00249,1.00718 0.20142,0.77023 0.78123,1.40041 1.28846,1.40041 0.50724,0 0.92225,0.39633 0.92225,0.88074 0,0.4844 1.97025,2.88027 4.37835,5.32415 2.40809,2.44388 4.19038,4.74755 3.96065,5.11927 -0.70163,1.13526 -1.67234,0.75362 -1.67234,-0.65749 z M 1232.6667,352.33333 V 346 h 9 9 v 6.33333 6.33334 h -9 -9 z M 96.343124,351.34917 c -0.228623,-0.36992 5.150646,-6.29498 11.953936,-13.1668 6.80329,-6.87182 12.36961,-12.89175 12.36961,-13.37764 0,-0.48588 0.32019,-0.68553 0.71154,-0.44366 0.3918,0.24214 0.8761,-0.18954 1.07775,-0.96066 0.20142,-0.77023 0.78123,-1.40041 1.28847,-1.40041 0.50723,0 0.92224,-0.45 0.92224,-1 0,-0.55 0.45,-1 1,-1 0.55,0 1,-0.45 1,-1 0,-0.55 0.3,-1 0.66667,-1 1.56439,0 0.45084,2.43535 -2.33333,5.10306 -1.65,1.58098 -3,3.17955 -3,3.55239 0,0.37284 -0.45,0.67788 -1,0.67788 -0.55,0 -1,0.45 -1,1 0,0.55 -0.45,1 -1,1 -0.55,0 -1,0.45 -1,1 0,0.55 -0.45,1 -1,1 -0.55001,0 -1.00001,0.45 -1.00001,1 0,0.55 -0.45,1 -1,1 -0.55,0 -1,0.45 -1,1 0,0.55 -0.45,1 -1,1 -0.55,0 -1,0.45 -1,1 0,0.55 -0.45,1 -1,1 -0.55,0 -1,0.45 -1,1 0,0.55 -0.45,1 -1,1 -0.55,0 -1,0.45 -1,1 0,0.55 -0.45,1 -1,1 -0.55,0 -1,0.45 -1,1 0,0.55 -0.45,1 -1,1 -0.55,0 -1,0.45 -1,1 0,0.55 -0.45,1 -1,1 -0.55,0 -1,0.45 -1,1 0,0.55 -0.45,1 -1,1 -0.55,0 -1,0.45 -1,1 0,0.55 -0.449996,1 -0.999996,1 -0.55,0 -1,0.4323 -1,0.96066 0,1.22748 -1.112513,1.93598 -1.65688,1.05518 z m 510.557316,-2.52733 c -0.21409,-0.81868 -0.80427,-1.48851 -1.3115,-1.48851 -0.50724,0 -0.92225,-0.45 -0.92225,-1 0,-0.55 -0.45,-1 -1,-1 -0.55,0 -1,-0.45 -1,-1 0,-0.55 -0.45,-1 -1,-1 -0.55,0 -1,-0.45 -1,-1 0,-0.55 -0.45,-1 -1,-1 -0.55,0 -1,-0.45 -1,-1 0,-0.55 -0.45,-1 -1,-1 -0.55,0 -1,-0.45 -1,-1 0,-0.55 -0.45,-1 -1,-1 -0.55,0 -1,-0.45 -1,-1 0,-0.55 -0.45,-1 -1,-1 -0.55,0 -1,-0.45 -1,-1 0,-0.55 -0.45,-1 -1,-1 -0.55,0 -1,-0.28571 -1,-0.63492 0,-0.3492 -1.51428,-2.1492 -3.36508,-4 -1.85079,-1.85079 -3.65079,-3.36508 -4,-3.36508 -0.3492,0 -0.63492,-0.45 -0.63492,-1 0,-0.55 -0.45,-1 -1,-1 -0.55,0 -1,-0.45 -1,-1 0,-0.55 -0.45,-1 -1,-1 -0.55,0 -1,-0.45 -1,-1 0,-0.55 -0.45,-1 -1,-1 -0.58926,0 -1,-0.60925 -1,-1.48331 0,-1.22779 0.83533,-0.65356 4.84901,3.33333 2.66696,2.64916 5.21696,4.81665 5.66667,4.81665 0.44971,0 0.81766,0.45 0.81766,1 0,0.55 0.45,1 1,1 0.55,0 1,0.33035 1,0.73411 0,0.81119 3.17464,4.26405 12.60446,13.70906 4.84664,4.85445 6.09101,6.46136 5.47816,7.0742 -0.61284,0.61285 -0.88138,0.45485 -1.18221,-0.69553 z M 204.00001,297 c 0,-34.81481 -0.12232,-39.66667 -1,-39.66667 -0.55,0 -1,0.45 -1,1 0,0.55556 -0.59259,1 -1.33333,1 -0.73334,0 -1.33334,-0.3 -1.33334,-0.66666 0,-0.36667 0.27692,-0.66667 0.61539,-0.66667 0.33846,0 1.53846,-0.92308 2.66666,-2.05128 l 2.05129,-2.05128 V 136.28205 18.666667 l 105.16667,0.03594 c 57.93246,0.0198 107.41235,0.305496 110.16667,0.636097 19.20659,2.305372 37.55293,8.398848 50.74157,16.853089 17.95043,11.506669 29.45272,27.228112 34.95015,47.770238 2.19454,8.20029 2.97587,15.309933 2.96948,27.020474 -0.008,15.35078 -1.3396,24.1483 -5.45006,36.01749 -8.93631,25.80411 -30.76034,46.04364 -59.54447,55.22136 -9.85994,3.14381 -12.06738,3.72241 -17.04404,4.46746 -7.10053,1.06302 -7.95597,1.26862 -7.95597,1.91217 0,0.31657 3.825,1.84274 8.5,3.3915 9.86897,3.26944 13.97261,5.00544 15.83334,6.69812 0.73333,0.66711 3.05399,1.85456 5.15703,2.63878 4.81794,1.79662 10.37565,5.53423 15.47678,10.40828 2.18193,2.0848 4.55708,3.8217 5.27811,3.85977 1.55756,0.0822 2.24259,1.52719 0.87544,1.84657 -0.70293,0.16422 -0.0564,1.7975 2.46311,6.22266 1.87891,3.3 3.90247,6.75 4.49681,7.66666 1.03364,1.59422 7.68058,12.71589 15.03775,25.16117 1.89843,3.21136 3.98279,6.88883 4.63193,8.17217 0.64913,1.28333 1.37901,2.48333 1.62195,2.66666 0.24294,0.18334 0.9655,1.35517 1.60568,2.60409 0.64018,1.24891 1.44801,2.59891 1.79518,3 0.34717,0.40108 1.14024,1.70655 1.76239,2.90103 1.48041,2.84229 9.60906,16.39779 10.09116,16.82822 0.20534,0.18333 0.97335,1.44443 1.70668,2.80245 2.86222,5.30036 7.25825,12.88074 7.65355,13.19755 0.22876,0.18333 0.93132,1.38333 1.56124,2.66666 0.62992,1.28334 1.62588,3.00834 2.21325,3.83334 l 1.06793,1.5 h -59.09561 -59.09561 l -0.80548,-1.83334 c -0.443,-1.00833 -0.97831,-1.98333 -1.18955,-2.16666 -0.21125,-0.18334 -0.98096,-1.53334 -1.71046,-3 -0.72951,-1.46667 -3.0859,-5.96667 -5.23642,-10 -2.15053,-4.03334 -4.76027,-8.98334 -5.79941,-11 -1.03915,-2.01667 -2.11602,-3.96667 -2.39306,-4.33334 -0.27704,-0.36666 -1.70371,-3.06666 -3.17037,-6 -1.46667,-2.93333 -3.04167,-5.72976 -3.5,-6.21428 -0.45834,-0.48453 -0.83334,-1.18578 -0.83334,-1.55835 0,-0.37256 -1.06967,-2.59013 -2.37704,-4.92793 -1.30737,-2.3378 -2.41094,-4.48655 -2.45238,-4.77499 -0.0414,-0.28845 -0.47177,-0.92088 -0.95629,-1.4054 -0.48453,-0.48452 -0.88095,-1.28809 -0.88095,-1.78571 0,-0.49762 -0.38325,-1.30119 -0.85165,-1.78572 -0.73524,-0.76053 -2.88628,-4.77515 -8.03398,-14.99425 -0.67042,-1.33092 -1.59844,-2.79934 -2.06226,-3.26316 -0.46383,-0.46382 -1.22669,-1.76886 -1.69526,-2.90009 -0.46857,-1.13123 -1.0674,-2.05678 -1.33072,-2.05678 -0.26333,0 -0.81532,-0.73863 -1.22665,-1.6414 -1.00744,-2.21108 -7.19836,-10.83273 -9.72312,-13.54068 -1.11895,-1.20014 -2.43447,-2.02858 -2.92337,-1.84097 -0.4889,0.18761 -0.73041,0.0846 -0.53667,-0.22883 0.54088,-0.87516 -2.08551,-2.94886 -3.01066,-2.37709 -0.49474,0.30577 -0.63968,0.22334 -0.37118,-0.21109 0.24394,-0.39471 -0.67687,-1.40744 -2.06366,-2.26967 -2.41469,-1.50131 -3.08178,-1.56476 -18.67083,-1.77568 l -16.16666,-0.21874 v 54.05207 54.05208 H 256.66668 204.00001 Z M 384.50492,149.72608 c 5.79366,-2.32379 12.1375,-7.73078 14.44362,-12.31062 1.9755,-3.92325 3.71814,-11.60446 3.71814,-16.38884 0,-9.15405 -4.65932,-18.66467 -11.34093,-23.149118 -7.11141,-4.772916 -7.43849,-4.808072 -46.82574,-5.033039 l -35.16666,-0.200861 v 29.700648 29.70065 l 35.16666,-0.18911 35.16667,-0.18912 z m 992.49518,172.48635 c -1.4667,-0.12656 -6.7917,-0.86354 -11.8334,-1.63775 l -9.1666,-1.40764 v -12.25019 -12.25018 h 1.688 c 0.9285,0 2.8035,0.46958 4.1667,1.04352 8.97,3.77651 26.6823,5.92858 35.7697,4.34609 11.4769,-1.99861 16.1603,-7.3811 17.3066,-19.88961 0.3062,-3.34124 0.1936,-4.16667 -0.5686,-4.16667 -0.5227,0 -1.1313,0.29269 -1.3524,0.65043 -0.738,1.19414 -9.0622,5.50561 -12.9898,6.72801 -9.7071,3.0212 -23.2131,2.03185 -32.5667,-2.38559 -9.5463,-4.50845 -16.8956,-13.91456 -19.7866,-25.32408 -3.7389,-14.75578 -2.5992,-33.21555 2.7024,-43.77151 5.9447,-11.83638 13.8569,-18.53373 26.6307,-22.54183 3.607,-1.1318 6.3318,-1.46677 12,-1.47524 8.3877,-0.0125 14.1958,1.13734 20.7455,4.10712 2.4414,1.10698 4.6599,2.01269 4.93,2.01269 0.2701,0 0.6711,-0.9 0.8911,-2 l 0.4,-2 h 15.0526 15.0526 l -0.2466,48.5 c -0.2409,47.36924 -0.2804,48.62194 -1.6974,53.73024 -2.0556,7.41075 -5.0891,12.76022 -10.11,17.82888 -9.0048,9.09029 -21.4383,12.70108 -43.0178,12.4928 -6.2334,-0.0602 -12.5334,-0.21294 -14,-0.33949 z m 29.7631,-62.20133 c 2.3303,-0.72723 5.216,-1.92532 6.4126,-2.66242 l 2.1758,-1.34017 -0.1758,-21.83759 -0.1757,-21.83759 -4.3334,-1.12118 c -14.4532,-3.73954 -27.0501,1.36638 -31.4186,12.73495 -2.7986,7.28298 -2.3967,22.58043 0.754,28.70317 3.9686,7.71196 15.4853,10.87973 26.7611,7.36083 z M 134.00001,312.89548 c 0,-0.24082 3.91973,-4.33109 8.71052,-9.08948 6.63786,-6.59296 8.89565,-8.4665 9.4885,-7.87364 0.59286,0.59286 0.42379,0.8706 -0.71052,1.16723 -0.81868,0.21409 -1.4885,0.80426 -1.4885,1.3115 0,0.50723 -0.45,0.92224 -1,0.92224 -0.55,0 -1,0.45 -1,1 0,0.55 -0.45,1 -1,1 -0.55,0 -1,0.45 -1,1 0,0.55 -0.45,1 -1,1 -0.55,0 -1,0.45 -1,1 0,0.55 -0.45,1 -1,1 -0.55,0 -1,0.45 -1,1 0,0.55 -0.45,1 -1,1 -0.55,0 -1,0.45 -1,1 0,0.55 -0.45,1 -1,1 -0.55,0 -1,0.45 -1,1 0,0.55 -0.45,1 -1,1 -0.55,0 -1,0.45 -1,1 0,0.55 -0.45,1 -1,1 -0.55,0 -1,-0.19703 -1,-0.43785 z m 434.66668,-2.56215 c 0,-0.55 -0.45,-1 -1,-1 -0.55,0 -1,-0.45 -1,-1 0,-0.55 -0.45,-1 -1,-1 -0.55,0 -1,-0.45 -1,-1 0,-0.55 -0.45,-1 -1,-1 -0.55,0 -1,-0.45 -1,-1 0,-0.55 -0.45,-1 -1,-1 -0.55,0 -1,-0.45 -1,-1 0,-0.55 -0.45,-1 -1,-1 -0.55,0 -1,-0.41501 -1,-0.92224 0,-0.50724 -0.66983,-1.09741 -1.4885,-1.3115 -1.12714,-0.29475 -1.30121,-0.57654 -0.71704,-1.16072 0.58418,-0.58418 2.40216,0.82642 7.48851,5.81043 3.69436,3.62005 6.71703,6.80738 6.71703,7.08297 0,0.27558 -0.45,0.50106 -1,0.50106 -0.55,0 -1,-0.45 -1,-1 z m -15.09225,-14 c -0.21105,-0.55 -0.74071,-1 -1.17702,-1 -0.4363,0 -1.5292,-0.88729 -2.42867,-1.97177 -0.89947,-1.08447 -2.01039,-1.98447 -2.46873,-2 -0.45833,-0.0155 -0.83333,-0.47823 -0.83333,-1.02823 0,-0.55 -0.45,-1 -1,-1 -0.55,0 -1,-0.41501 -1,-0.92224 0,-0.50724 -0.66983,-1.09741 -1.4885,-1.3115 -1.14148,-0.2985 -1.30559,-0.57217 -0.70392,-1.17384 0.60167,-0.60167 1.60108,0.0149 4.2868,2.64483 1.92621,1.88618 3.89297,3.42942 4.37058,3.42942 0.47761,0 0.86837,0.45 0.86837,1 0,0.55 0.45,1 1,1 0.55,0 1,0.41667 1,0.92593 0,0.50926 0.49272,0.88426 1.09492,0.83333 0.6022,-0.0509 1.2272,0.28241 1.38889,0.74074 0.42712,1.21076 -2.44393,1.04629 -2.90939,-0.16667 z M 152.18287,294.5 c 0.16169,-0.45833 0.78669,-0.79167 1.38889,-0.74074 0.6022,0.0509 1.09491,-0.32407 1.09491,-0.83333 0,-0.50926 0.34984,-0.92593 0.77741,-0.92593 0.42758,0 1.25258,-0.46029 1.83333,-1.02287 4.17486,-4.04418 7.63725,-6.97713 8.2366,-6.97713 0.73876,0 1.20359,-0.38659 5.33464,-4.4367 1.96766,-1.92911 2.6909,-2.29042 3.32183,-1.65949 0.63093,0.63093 0.48245,0.89128 -0.68197,1.19578 -0.81868,0.21409 -1.4885,0.80426 -1.4885,1.3115 0,0.50723 -0.45,0.92224 -1,0.92224 -0.55,0 -1,0.45 -1,1 0,0.55556 -0.5926,1 -1.33334,1 -0.73333,0 -1.25833,0.375 -1.16666,0.83334 0.0939,0.4697 -0.63827,0.92586 -1.67797,1.04537 -1.01988,0.11723 -1.66056,0.50989 -1.43293,0.8782 0.22645,0.3664 -0.21847,0.83097 -0.98869,1.03239 -0.77023,0.20141 -1.40041,0.78122 -1.40041,1.28846 0,0.50723 -0.45,0.92224 -1,0.92224 -0.55,0 -1,0.45 -1,1 0,0.55 -0.41791,1 -0.92868,1 -0.51077,0 -1.10135,0.45 -1.31241,1 -0.21105,0.55 -0.81105,1 -1.33333,1 -0.52228,0 -1.12228,0.45 -1.33333,1 -0.46546,1.21296 -3.33651,1.37743 -2.90939,0.16667 z M 1033,288.88386 c -10.5309,-0.66073 -21.4233,-3.38179 -29.1199,-7.27455 -5.55213,-2.80816 -12.85648,-8.63682 -16.91626,-13.4987 -4.95423,-5.93306 -9.88821,-16.02724 -12.11101,-24.77728 -1.60838,-6.33137 -1.78179,-8.20988 -1.81551,-19.66666 -0.0479,-16.27388 1.46375,-23.57414 7.31638,-35.33334 8.3524,-16.78178 24.1679,-27.69891 44.9797,-31.04857 6.4969,-1.04569 22.4613,-0.82503 29.8856,0.41308 6.8492,1.14219 17.2822,4.36451 23.6144,7.29345 l 3.8333,1.77312 v 15.61779 c 0,18.58285 0.4203,18.02923 -8.5593,11.27412 -6.6172,-4.97796 -15.2953,-9.66106 -21.1074,-11.3905 -5.8117,-1.72935 -15.3273,-1.62272 -21.361,0.23936 -5.6585,1.74632 -11.8116,5.59355 -15.1109,9.44805 -3.1183,3.64302 -6.6623,10.53544 -8.2511,16.04677 -1.7334,6.01327 -1.7796,23.05211 -0.079,29.28517 4.7982,17.59006 17.1109,27.03856 35.1358,26.96238 5.835,-0.0247 7.8859,-0.33308 12.3235,-1.85317 6.1875,-2.11957 13.6447,-6.39379 20.022,-11.47598 7.261,-5.78643 6.9885,-6.25139 6.9841,11.91493 l -0,15.5 -7.4963,3.11543 c -9.5994,3.98949 -19.5049,6.48424 -28.8005,7.25356 -4.0494,0.33512 -7.9625,0.56012 -8.6958,0.5 -0.7333,-0.0601 -2.8333,-0.20343 -4.6667,-0.31846 z m 105,-0.49404 c -18.8734,-3.35841 -32.4289,-15.70665 -37.4286,-34.09517 -2.1175,-7.78806 -2.1058,-23.61351 0.023,-31.59729 4.6485,-17.43044 15.9925,-28.68695 33.7386,-33.47852 4.5359,-1.22474 7.1274,-1.44004 17.3333,-1.44004 10.2253,0 12.7768,0.21274 17.2521,1.43851 15.8163,4.33196 26.7405,14.09986 31.9619,28.57877 2.5122,6.96656 3.3419,13.64483 2.9418,23.68087 -0.3955,9.92306 -1.6995,15.73459 -5.0638,22.56841 -5.7629,11.70616 -16.2858,19.95988 -30.092,23.60284 -5.8205,1.53582 -23.7647,1.96977 -30.6667,0.74162 z m 23.3183,-22.42106 c 3.511,-1.93886 7.2987,-6.709 8.9304,-11.24666 2.587,-7.19425 2.6747,-23.25184 0.1723,-31.54878 -3.1266,-10.36618 -10.1061,-15.13916 -20.9951,-14.35749 -12.4652,0.89484 -18.736,10.88578 -18.736,29.85084 0,11.89674 2.3456,19.77148 7.3302,24.60889 3.7205,3.61054 7.4468,4.75916 14.6583,4.51829 4.5442,-0.15178 6.27,-0.51635 8.6399,-1.82509 z m 444.3484,22.67394 c -25.1818,-2.10115 -42.1298,-14.03124 -47.7932,-33.6427 -1.3344,-4.62087 -1.5386,-6.8028 -1.5287,-16.33333 0.013,-12.68818 0.7522,-16.30513 5.1765,-25.33334 3.3406,-6.81696 10.4601,-14.4244 17.1128,-18.2857 9.6272,-5.58777 21.9315,-8.17369 35.6993,-7.50268 13.6033,0.66299 23.1539,4.04376 30.1864,10.68551 9.1127,8.60622 12.3019,17.50298 13.121,36.60287 L 1658.0339,244 h -35.6915 -35.6914 l 0.3982,2.83333 c 0.219,1.55834 1.2836,4.69254 2.3657,6.96491 3.3827,7.1034 9.0274,10.91008 19.123,12.89627 5.4966,1.0814 19.8881,0.48689 24.7955,-1.0243 4.9541,-1.52555 12.188,-4.72132 16.0088,-7.0723 1.7263,-1.06218 3.9305,-1.93124 4.8983,-1.93124 h 1.7596 v 12.27028 12.27029 l -5.5,1.97887 c -14.2227,5.11726 -28.3269,6.83386 -44.8334,5.45659 z m 20.9346,-66.3933 c -0.9255,-6.82013 -3.2004,-10.69417 -7.9016,-13.45626 -3.9882,-2.34316 -13.3386,-2.88835 -18.9995,-1.1078 -6.8581,2.15716 -11.6232,8.0338 -12.5529,15.48133 L 1586.7936,226 h 20.1583 20.1583 z m 74.7321,66.34466 c -7.425,-0.84095 -14.4695,-2.36613 -21.6208,-4.68104 l -6.3792,-2.06498 v -12.92402 c 0,-14.96855 -0.2557,-14.55008 6.2869,-10.28798 8.9488,5.82963 20.3189,9.32135 32.0464,9.84137 10.3297,0.45805 15.1185,-0.46251 18.1438,-3.48786 2.3274,-2.32736 2.7351,-4.39624 1.4305,-7.25939 -1.2995,-2.85218 -6.3946,-4.55701 -21.0317,-7.03726 -17.5695,-2.97718 -26.5869,-7.41387 -32.1556,-15.82115 -4.5677,-6.89587 -5.3994,-18.06163 -1.9111,-25.65518 4.0821,-8.88608 14.9404,-16.65569 27.2746,-19.5162 14.9758,-3.4731 37.8363,-1.97466 52.2495,3.42479 l 3.3334,1.24873 0.1817,12.14639 0.1817,12.14639 h -1.5334 c -0.8433,0 -2.1561,-0.43622 -2.9173,-0.96938 -3.259,-2.2827 -11.1141,-5.76149 -16.5973,-7.35046 -10.5524,-3.05797 -22.6538,-2.9086 -29.0582,0.35866 -2.8906,1.47467 -3.9239,3.00924 -3.9239,5.82744 0,4.66829 4.1685,6.76478 18.8032,9.45697 21.1653,3.89353 27.1862,6.3057 33.3624,13.36605 7.0965,8.11232 7.8337,21.82713 1.6932,31.49751 -8.708,13.71353 -31.5571,20.7195 -57.8588,17.7406 z m 116,-0.0153 c -19.1273,-3.12334 -33.1216,-15.52574 -38.1628,-33.82163 -1.1694,-4.24409 -1.4036,-6.97474 -1.4089,-16.42377 -0.01,-10.46935 0.1332,-11.78936 1.8229,-17.31541 2.6676,-8.72393 5.3401,-13.27215 11.4126,-19.42267 6.1106,-6.18914 12.8283,-9.94733 22.0029,-12.30959 14.9003,-3.83651 35.2886,-1.72232 47,4.87369 4.6843,2.6383 13.7779,11.80379 16.2032,16.33138 8.2054,15.31781 8.5928,38.83536 0.8884,53.93304 -6.7076,13.14446 -19.0951,21.69276 -35.0916,24.21597 -5.168,0.81518 -19.5183,0.77968 -24.6667,-0.061 z M 1839.6618,266 c 3.8874,-1.94655 6.9124,-5.65657 9.0872,-11.14513 1.382,-3.48781 1.5302,-4.96577 1.5559,-15.52154 0.025,-10.22551 -0.1532,-12.24313 -1.4423,-16.33333 -0.809,-2.56667 -2.3992,-5.92704 -3.5338,-7.46749 -2.7531,-3.73788 -8.1854,-6.39652 -13.8003,-6.75405 -14.8483,-0.94547 -22.2132,8.84668 -22.1835,29.49485 0.024,16.40355 4.1101,25.44997 12.9636,28.69737 4.3321,1.58897 13.2361,1.09091 17.3532,-0.97068 z M 684.00003,275.33333 V 264 h 10.33333 10.33334 V 222.66667 181.33333 H 694.33336 684.00003 V 170 158.66667 h 37.33333 37.33334 V 170 181.33333 H 748.00003 737.33336 V 222.66667 264 h 10.66667 10.66667 v 11.33333 11.33334 h -37.33334 -37.33333 z m 133.25655,9.51057 c -1.54046,-3.95341 -45.92321,-125.62141 -45.92321,-125.89094 0,-0.15746 7.75081,-0.28629 17.22402,-0.28629 l 17.22403,0 15.22182,44.16666 c 8.37201,24.29167 15.3962,44.37445 15.60931,44.6284 0.21312,0.25395 7.28749,-19.61652 15.72082,-44.1566 l 15.33333,-44.61833 16.90466,-0.0101 c 13.25033,-0.008 16.83667,0.17008 16.59012,0.82327 -0.35319,0.93571 -37.03936,101.29374 -42.70876,116.83333 l -3.64836,10 -18.41465,0.17724 -18.41464,0.17723 z M 1226.6667,238.33333 V 190 h 15.6667 15.6667 v 5.36702 5.36701 l 4.1798,-2.98269 c 5.6737,-4.04865 12.6006,-7.47422 17.8202,-8.81264 5.1861,-1.32984 15.0126,-1.46259 20.0648,-0.27107 8.6083,2.03016 15.5918,7.42119 19.2415,14.85375 3.8193,7.77781 4.0027,9.98378 4.0154,48.31195 l 0.012,34.83334 h -15.3333 -15.3334 l -0.021,-27.5 c -0.011,-15.125 -0.3095,-29.7267 -0.6628,-32.44823 -0.8175,-6.29871 -2.7087,-10.23137 -5.8639,-12.1933 -2.1847,-1.35848 -3.2905,-1.52514 -10.1193,-1.52514 -7.6112,0 -7.7054,0.0193 -13,2.66667 l -5.3334,2.66666 0.2566,34.16667 0.2566,34.16667 h -15.7566 -15.7566 z m 248.6667,0 V 190 h 15.3333 15.3334 v 7 c 0,3.85 0.1302,7 0.2893,7 0.1592,0 2.4709,-1.64107 5.1371,-3.64682 C 1521.1456,193.0416 1529.4735,190 1539.7734,190 h 5.56 v 14.66667 c 0,13.52311 -0.091,14.66681 -1.1667,14.66849 -0.6416,0.001 -4.3956,-0.33543 -8.3421,-0.74763 -8.4813,-0.88586 -18.3594,-0.0752 -25.3342,2.07914 l -4.4903,1.3869 v 32.30655 32.30655 h -15.3334 -15.3333 z m -936.00004,46 c 0,-0.55555 -0.5926,-1 -1.33334,-1 -0.74074,0 -1.33333,-0.44444 -1.33333,-1 0,-0.55 -0.45,-1 -1,-1 -0.55,0 -1,-0.45 -1,-1 0,-0.55 -0.45,-1 -1,-1 -0.55,0 -1,-0.45 -1,-1 0,-0.55 -0.5823,-1 -1.29399,-1 -1.69145,0 -2.33293,-1.07802 -0.95591,-1.60643 0.73026,-0.28023 2.13267,0.66088 4.36642,2.93014 1.80985,1.83863 3.72403,3.34296 4.25373,3.34296 0.52969,0 0.96308,0.41667 0.96308,0.92593 0,0.50926 0.49271,0.88426 1.09492,0.83333 0.6022,-0.0509 1.2272,0.28241 1.38889,0.74074 0.18607,0.52748 -0.33813,0.83333 -1.42825,0.83333 -1.08642,0 -1.72222,-0.36917 -1.72222,-1 z M 174.18287,276.5 c 0.16169,-0.45833 0.78669,-0.79167 1.38889,-0.74074 0.6022,0.0509 1.09491,-0.32407 1.09491,-0.83333 0,-0.50926 0.40228,-0.92593 0.89395,-0.92593 0.49168,0 2.32315,-1.35 4.06994,-3 1.74679,-1.65 3.59451,-3 4.10605,-3 0.51153,0 1.14756,-0.0225 1.4134,-0.05 0.26583,-0.0275 0.59083,0.2725 0.72222,0.66667 0.13658,0.40974 -0.65827,0.71666 -1.85601,0.71666 -1.31491,0 -1.93117,0.26493 -1.65515,0.71154 0.24215,0.3918 -0.18953,0.8761 -0.96065,1.07776 -0.77023,0.20141 -1.40041,0.78122 -1.40041,1.28846 0,0.50723 -0.45,0.92224 -1,0.92224 -0.55,0 -1,0.45 -1,1 0,0.55556 -0.59259,1 -1.33334,1 -0.74074,0 -1.33333,0.44445 -1.33333,1 0,0.63083 -0.6358,1 -1.72222,1 -1.09012,0 -1.61433,-0.30585 -1.42825,-0.83333 z m 352.48382,-2.16667 c 0,-0.55 -0.45,-1 -1,-1 -0.55,0 -1,-0.45 -1,-1 0,-0.55 -0.5823,-1 -1.29399,-1 -1.70083,0 -2.32978,-1.07923 -0.93979,-1.61262 1.02973,-0.39514 1.92048,0.18998 4.73852,3.11262 0.6187,0.64167 1.50824,1.16667 1.97675,1.16667 0.46851,0 0.85184,0.3 0.85184,0.66667 0,0.36666 -0.75,0.66666 -1.66666,0.66666 -1.03704,0 -1.66667,-0.37777 -1.66667,-1 z m -8,-5.92224 c 0,-0.50724 -0.66983,-1.09741 -1.4885,-1.3115 -1.17608,-0.30755 -1.31678,-0.56098 -0.67035,-1.20741 0.64643,-0.64643 1.10424,-0.51109 2.18114,0.64483 0.74964,0.80465 1.8013,1.46299 2.33701,1.46299 0.53572,0 0.97403,0.3 0.97403,0.66667 0,0.36666 -0.75,0.66666 -1.66666,0.66666 -0.97459,0 -1.66667,-0.38296 -1.66667,-0.92224 z m -330.52124,-1.84742 c 0.34603,-1.03807 1.8375,-1.21986 1.88977,-0.23034 0.0194,0.36667 -0.46518,0.77032 -1.07678,0.89701 -0.69514,0.14399 -0.9999,-0.10592 -0.81299,-0.66667 z m 1.85456,-1.81929 c 0,-0.65248 3.1087,-1.41345 3.63287,-0.88928 0.18198,0.18198 0.17133,0.58903 -0.0237,0.90455 -0.46742,0.7563 -3.6092,0.74301 -3.6092,-0.0153 z m 323.12925,0.16263 c -0.23448,-0.23447 -0.29164,-0.64424 -0.12703,-0.91059 0.40575,-0.6565 3.66446,0.009 3.66446,0.74796 0,0.67365 -2.8934,0.80667 -3.53743,0.16263 z m -319.11773,-2.07368 c 0.0296,-1.28391 3.18743,-3.41031 4.53949,-3.05674 1.83992,0.48115 1.20172,1.55674 -0.92369,1.55674 -1.00206,0 -1.62732,0.38423 -1.62732,1 0,0.55 -0.45,1 -1,1 -0.55,0 -0.99482,-0.225 -0.98848,-0.5 z m 316.65516,-0.5 c 0,-0.55 -0.5823,-1 -1.29399,-1 -1.68438,0 -2.3353,-1.07711 -0.968,-1.60179 0.63034,-0.24189 1.71051,0.20496 2.65132,1.09681 1.83706,1.74143 2.0232,2.50498 0.61067,2.50498 -0.55,0 -1,-0.45 -1,-1 z m -6,-4 c 0,-0.55 -0.5823,-1 -1.29399,-1 -1.70367,0 -2.32882,-1.0796 -0.93488,-1.6145 0.66618,-0.25564 1.59096,0.10954 2.35547,0.93014 0.69227,0.74307 1.71469,1.35103 2.27205,1.35103 0.55735,0 0.82796,0.3 0.60135,0.66667 -0.64448,1.04278 -3,0.78105 -3,-0.33334 z m -6,-4 c 0,-0.61577 -0.62526,-1 -1.62732,-1 -2.14374,0 -2.75692,-1.07734 -0.89092,-1.56531 0.96935,-0.25349 1.87994,0.0599 2.68514,0.92421 0.6701,0.71927 1.67439,1.30777 2.23175,1.30777 0.55735,0 0.82796,0.3 0.60135,0.66667 -0.64448,1.04278 -3,0.78105 -3,-0.33334 z m -6.5,-3.83333 c 0.15278,-0.45833 0.67778,-0.83333 1.16666,-0.83333 0.48889,0 1.01389,0.375 1.16667,0.83333 0.16524,0.49573 -0.30741,0.83333 -1.16667,0.83333 -0.85925,0 -1.3319,-0.3376 -1.16666,-0.83333 z m -3.5,-2.16667 c 0,-0.61577 -0.62526,-1 -1.62732,-1 -2.14374,0 -2.75692,-1.07734 -0.89092,-1.56531 0.96935,-0.25349 1.87993,0.0599 2.68513,0.92421 0.67011,0.71927 1.65669,1.30777 2.19241,1.30777 0.53572,0 0.97403,0.3 0.97403,0.66667 0,0.36666 -0.75,0.66666 -1.66667,0.66666 -1.03703,0 -1.66666,-0.37777 -1.66666,-1 z m -6.30487,-3.6206 c -0.21095,-0.34133 -0.0787,-0.80903 0.29399,-1.03934 0.79559,-0.4917 2.01088,0.13238 2.01088,1.03262 0,0.8112 -1.80442,0.81647 -2.30487,0.007 z m -3.99328,-1.98912 c -0.20725,-0.33535 -0.0113,-0.73158 0.4355,-0.8805 1.20026,-0.40009 3.86265,0.22113 3.86265,0.90127 0,0.78001 -3.81463,0.76157 -4.29815,-0.0208 z m -3.57408,-2.10694 c 0.13139,-0.39417 0.45639,-0.69417 0.72223,-0.66667 0.26583,0.0275 1.08333,0.05 1.81666,0.05 0.73334,0 1.33334,0.3 1.33334,0.66667 0,0.36666 -0.925,0.66666 -2.05556,0.66666 -1.16968,0 -1.9526,-0.30886 -1.81667,-0.71666 z m -4.12777,-1.87225 c 0,-0.70814 2.67066,-1.48731 3.44902,-1.00625 1.20984,0.74772 0.44003,1.59516 -1.44902,1.59516 -1.1,0 -2,-0.26501 -2,-0.58891 z"
       id="path1" />
  </g>
</svg>
